<svg xmlns="http://www.w3.org/2000/svg" xmlns:xlink="http://www.w3.org/1999/xlink" width="60" height="60" viewBox="0 0 60 60">
  <defs>
    <linearGradient id="linear-gradient" x1="0.033" y1="0.262" x2="1" y2="0.708" gradientUnits="objectBoundingBox">
      <stop offset="0" stop-color="#3ee7fd"/>
      <stop offset="1" stop-color="#4b91ff"/>
    </linearGradient>
    <clipPath id="clip-path">
      <path id="bg" d="M804.375,40.406V19.593a9.189,9.189,0,0,0-4.589-7.957L781.777,1.231a9.171,9.171,0,0,0-9.179,0L754.589,11.637A9.189,9.189,0,0,0,750,19.593V40.406a9.189,9.189,0,0,0,4.589,7.957L772.6,58.769a9.171,9.171,0,0,0,9.179,0l18.008-10.406A9.189,9.189,0,0,0,804.375,40.406Z" transform="translate(-750 0)" fill="url(#linear-gradient)"/>
    </clipPath>
    <linearGradient id="linear-gradient-3" x1="0.097" y1="0.175" x2="0.384" y2="0.462" gradientUnits="objectBoundingBox">
      <stop offset="0" stop-color="#269fcb"/>
      <stop offset="1" stop-color="#4390f8" stop-opacity="0"/>
    </linearGradient>
    <linearGradient id="linear-gradient-4" x1="0.255" y1="0.5" x2="0.949" y2="1" gradientUnits="objectBoundingBox">
      <stop offset="0" stop-color="#e6eef2"/>
      <stop offset="1" stop-color="#d8e2eb"/>
    </linearGradient>
    <filter id="路径_1" x="14.131" y="10.854" width="32.705" height="31.819" filterUnits="userSpaceOnUse">
      <feOffset dx="0.5" input="SourceAlpha"/>
      <feGaussianBlur stdDeviation="0.3" result="blur"/>
      <feFlood flood-color="#1a6fbf"/>
      <feComposite operator="in" in2="blur"/>
      <feComposite in="SourceGraphic"/>
    </filter>
    <clipPath id="clip-FDM切片软件图标_2">
      <rect width="60" height="60"/>
    </clipPath>
  </defs>
  <g id="FDM切片软件图标_2" data-name="FDM切片软件图标 – 2" clip-path="url(#clip-FDM切片软件图标_2)">
    <path id="bg-2" data-name="bg" d="M804.375,40.406V19.593a9.189,9.189,0,0,0-4.589-7.957L781.777,1.231a9.171,9.171,0,0,0-9.179,0L754.589,11.637A9.189,9.189,0,0,0,750,19.593V40.406a9.189,9.189,0,0,0,4.589,7.957L772.6,58.769a9.171,9.171,0,0,0,9.179,0l18.008-10.406A9.189,9.189,0,0,0,804.375,40.406Z" transform="translate(-747.188 0)" fill="url(#linear-gradient)"/>
    <g id="蒙版组_2" data-name="蒙版组 2" transform="translate(2.813)" clip-path="url(#clip-path)">
      <path id="路径_49" data-name="路径 49" d="M-2354.45,13002.352l-15.569-30.225-.043.082-.132-.256-.042.08-.132-.256-.043.082-.132-.256-.042.082-.132-.257-.043.081-.132-.256-.043.082-.132-.257-.042.081-.132-.256-.042.082-.132-.257-.043.081-.132-.255-.043.081-.132-.256-.042.081-.132-.257-.042.082-.132-.256-.043.081-.132-.257-.043.082-.132-.256-.043.082-.132-.257-.042.081-.132-.256-.043.082-.132-.256-.043.081-.132-.256-.043.081-.132-.256-.042.081-.132-.256-.043.081-.132-.256-.043.082-.132-.257-.043.081-.132-.256-.043.082-.132-.256-.042.081-.132-.257-.043.082-.132-.256-.043.081-.132-.257-.042.082-.132-.256-.043.082-.132-.256-.043.08-.132-.256-.042.082-.132-.257-.043.082-.132-.257-.043.082-.132-.257-.043.082-.132-.257-.043.082-.132-.256-.042.081-.132-.257-.043.082-.132-.256-.043.082-.132-.257-.042.081-.132-.256-.042.082-.132-.256-.043.081-.132-.257-.043.082-.132-.256-.042.082-.132-.258-.043.082-.132-.256-.043.081-.132-.257-.042.082-.132-.256-.043.082-.132-.257-.043.082-.132-.257-.043.082-.132-.256-.043.08-.132-.256-.042.082-.132-.256-.042.082-.132-.257-.043.081-.132-.256-.043.081-.132-.257-.042.082-.132-.256-.043.082-.132-.257-.043.082-.132-.257-.043.082-.132-.256-.042.081-.132-.257-.042.082-.132-.256-.043.082-.132-.257-.043.081-.132-.256-.042.082-.132-.256-.043.08-.132-.256-.043.082-.132-.256-.043.081-.132-.257-.042.082-.132-.256-.043.082-.132-.257-.042.081-.132-.256-.043.082-.132-.258-.043.082-.132-.256-.042.082-.132-.256-.043.08-.132-.256-.043.082-.132-.256-.042.081-.132-.257-.043.082-.132-.256-.043.082-.132-.257-.043.081-.132-.256-.042.082-.132-.256-.042.08-.132-.256-.043.082-.132-.257-.043.082-.132-.257-.042.082-.132-.256-.042.081-.132-.256-.043.082-.132-.257-.043.082-.132-.257-.043.081-.132-.256-.043.082-.132-.257-.042.083-.132-.257-.043.081-.132-.257-.043.082-.132-.256-.043.081-.132-.256-.043.081-.132-.256-.043.082-.132-.257-.042.082-.132-.257-.043.081-.132-.256-.043.082-.132-.256-.043.081-.132-.257-.042.082-.132-.256-.043.082-.132-.257-.043.081-.132-.256-.043.081-.132-.256-.042.082-.132-.257-.042.082-.132-.256-.043.081-.132-.257-.043.082-.132-.256-.042.081-.132-.257-.043.082-.132-.256-.043.082-.132-.257-.043.081-.132-.256-.042.082-.132-.257-.043.082-.132-.257-.042.082-.132-.256-.043.081-.132-.257-.042.082-.132-.256-.043.081-.132-.257-.043.082-.132-.256-.043.082-.132-.257-.042.081-.132-.256-.043.082-.132-.256-.042.08-.132-.256-.043.082-.132-.256-.042.082-.132-.257-.043.081-.132-.256-.043.082-.132-.257-.043.081-.132-.256-.042.082-.132-.257-.043.082-.132-.257-.043.082-.132-.256-.043.081-.132-.257-.042.082-.132-.256-.043.082-.132-.257-.042.081-.132-.256-.043.082-.132-.257-.043.081-.132-.256-.043.082-.132-.257-.042.082-.132-.257-.043.082-.132-.256-.042.081-.132-.257-.043.082-.132-.256-.043.082-.132-.257-.043.081-.132-.256-.042.082-.132-.256-.043.08-.132-.256-.043.082-.132-.256-.043.081-.132-.257-.042.082-.132-.256-.042.081-.132-.256-.043.081-.132-.256-.043.082-.132-.257-.042.081-.132-.256-.043.082-.132-.257-.043.082-.132-.257-.043.082-.132-.256-.042.081-.132-.257-.043.082-.132-.256-.042.082-.132-.257-.043.081-.132-.256-.043.082-.132-.257-.042.082-.132-.257-.043.082-.132-.257-.043.082-.132-.257-.042.082-.132-.256-.043.082-.132-.257-.042.081-.132-.256-.042.082-.132-.257-.043.081-.132-.256-.043.082-.132-.256-.043.081-.132-.257-.043.082-.132-.256-.042.081-.132-.257-.043.082-.132-.256-.043.082-.132-.257-.043.081-.132-.256-.042.082-.132-.257-.043.082-.132-.257-.043.082-.132-.256-.043.081-.132-.257-.043.082-.132-.256-.043.082-.132-.257-.042.081-.132-.256-.043.082-.132-.257-.042.082-.132-.257-.043.082-.132-.256-.043.081-.132-.257-.042.082-.132-.256-.042.081-.132-.257-.043.082-.132-.256-.043.081-.132-.257-.042.082-.132-.256-.042.082-.132-.257-.043.081-.132-.256-.043.082-.132-.256-.043.082-.132-.257-.042.081-.132-.256-.043.081-.132-.257-.043.082-.132-.256-.043.082-.132-.257-.043.081-.132-.256-.043.082-.132-.256-.042.08-.132-.256-.043.082-.132-.256-.043.081-.132-.257-.043.082-.132-.256-.043.082-.132-.257-.043.081-.132-.256-.042.082-.132-.257-.043.082-.132-.257-.043.082-.132-.257-.042.082-.132-.257-.043.082-.132-.256-.043.081-.132-.257-.043.082-.132-.256-.043.082-.132-.256-.042.08-.132-.256-.043.082-.132-.257-.043.082-.132-.257-.042.082-.132-.256-.042.081-.132-.256-.043.081-.132-.256-.043.081-.132-.257-.043.082-.132-.256-.042.082-.132-.257-.043.081-.132-.256-.043.082-.132-.257-.043.082-.132-.257-.043.082-.132-.256-.043.081-.132-.256-.043.081-.132-.256-.042.082-.132-.257-.042.082-.132-.257-.043.082-.132-.257-.043.082-.132-.257-.042.082-.132-.256-.043.081-.132-.256-.043.081-.132-.256-.043.082-.132-.257-.043.081-.132-.256-.042.082-.132-.256-.043.081-.132-.257-.043.082-.132-.256-.042.081-.132-.257-.043.082-.132-.256-.043.082-.132-.257-.043.081-.132-.256-.042.082-.132-.257-.043.081-.132-.256-.043.082-.132-.256-.043.081-.132-.257-.042.082-.132-.256-.043.082-.132-.258-.043.082-.132-.256-.043.082-.132-.257-.042.081-.132-.256-.043.082-.132-.257-.043.082-.132-.257-.042.082-.132-.256-.043.081-.132-.257-.042.082-.132-.256-.043.081-.132-.256-.043.081-.132-.256-.042.082-.132-.257-.043.081-.132-.256-.043.082-.132-.256-.043.082-.132-.258-.043.082-.132-.256-.042.082-.132-.258-.042.082-.132-.256-.043.082-.132-.257-.043.081-.132-.256-.043.082-.132-.256-.042.08-.132-.256-.043.082-.132-.256-.042.081-.132-.257-.042.082-.132-.256-.043.082-.132-.257-.043.081-.132-.256-.042.082-.132-.257-.043.082-.132-.257-.043.082-.132-.257-.043.081-.132-.255-.042.081-.132-.256-.042.081-.132-.257-.043.082-.132-.256-.043.082-.132-.257-.042.081-.132-.256-.042.082-.132-.256-.043.081-.132-.257-.043.082-.132-.256-.042.081-.132-.256-.043.081-.132-.256-.042.081-.132-.257-.043.082-.132-.256-.042.082-.132-.257-.042.081-.132-.256-.043.082-.132-.256-.043.08-.132-.256-.042.082-.132-.256-.043.082-.132-.257-.043.081-.132-.256-.043.081-.132-.256-3.522,6.741,6.133,11.837-.011.021-.132-.259-.043.084-.132-.258-.043.084-.132-.259-.043.083-.132-.258-.043.084-.132-.258-.043.083-.131-.259-.043.084-.132-.258-.043.083-.132-.259-.043.084-.132-.258-.043.084-.131-.259-.043.084-.132-.259-.043.084-.132-.259-.043.084-.132-.259-.043.084-.131-.259-.043.083-.132-.258-.043.084-.132-.258-.043.083-.132-.259-.043.084-.132-.258-.043.084-.132-.259-.043.084-.132-.259-.043.084-.132-.259-.043.084-.132-.259-.043.084-.132-.258-.043.083-.132-.259-.043.084-.132-.258-.043.084-.132-.26-.043.084-.132-.258-.043.084-.132-.259-.043.083-.132-.258-.043.084-.131-.259-.043.084-.132-.259-.043.084-.132-.258-.043.084-.132-.259-.043.083-.132-.258-.043.084-.132-.259-.043.083-.132-.258-.043.084-.132-.259-.043.083-.131-.258-.043.084-.132-.258-.043.083-.132-.258-.043.083-.131-.258-.043.084-.131-.259-.043.083-.132-.258-.043.084-.132-.258-.043.083-.132-.259-.043.084-.132-.258-10.155,19.744h.265l-.09.174h.264l-.09.175h.264l-.09.175h.265l-.09.175h.264l-.09.175h.264l-.09.174h.264l-.09.176h.264l-.09.174h.265l-.09.175h.264l-.09.175h.264l-.09.175h.265l-.09.175h.265l-.09.174h.265l-.09.176h.264l-.09.174h.265l-.09.176h.265l-.09.174h.265l-.09.175h.264l-.09.175h.265l-.09.174h.265l-.09.176h.264l-.09.174h.264l-.09.175h.265l-.09.175h.265l-.09.176h.264l-.09.174h.264l-.09.175h.265l-.09.175h.265l-.09.174h.264l-.09.176h.264l-.09.174h.264l-.09.175h.265l-.09.175h.264l-.09.175h.264l-.09.175h.265l-.09.175h.265l-.09.175h.264l-.09.174h.264l-.09.176h.265l-.09.174h.265l-.09.176h.264l-.09.174h.265l-.09.175h.265l-.09.175h.265l-.09.175h.265l-.09.174h.264l-.09.175h.264l-.09.176h.264l-.09.174h.265l-.09.176h.264l-.09.174h.265l-.09.175h.265l-.09.175h.264l-.09.174h.264l-.09.176h.265l-.09.174h.265l-.09.175h.264l-.09.175h.264l-.09.175h.265l-.09.175h.265l-.09.175h.264l-.09.175h.265l-.09.174h.265l-.09.175h.265l-.09.175h.264l-.09.175h.264l-.09.175h.265l-.09.174h.264l-.09.176h.264l-.09.174h.264l-.09.176h.265l-.09.174h.264l-.09.175h.264l-.09.175h.264l-.09.175h.265l-.09.175h.265l-.09.174h.264l-.09.176h.264l-.09.174h.265l-.09.175h.265l-.09.175h.265l-.09.175h.264l-.09.175h.265l-.09.175h.265l-.09.175h.264l-.09.174h.265l-.09.176h.265l-.09.174h.265l-.09.176h.264l-.09.174h.264l-.09.175h.265l-.09.175h.264l-.09.174h.264l-.09.176h.264l-.09.174h.265l-.09.176h.265l-.09.174h.264l-.09.175h.264l-.09.175h.265l-.09.174h.264l-.09.176h.265l-.09.174h.264l-.09.176h.265l-.09.174h.265l-.09.176h.264l-.09.174h.264l-.09.175h.265l-.09.175h.264l-.09.175h.265l-.09.175h.264l-.09.174h.265l-.09.176h.265l-.09.174h.264l-.09.175h.264l-.09.175h.265l-.09.175h.264l-.09.175h.265l-.09.175h.264l-.09.174h.265l-.09.175h.264l-.09.176h.265l-.09.174h.264l-.09.175h.265l-.09.175h.265l-.09.175h.264l-.09.175h.264l-.09.174h.265l-.09.175h.265l-.09.175h.265l-.09.175h.265l-.09.175h.265l-.09.175h.264l-.09.175h.265l-.09.174h.264l-.09.176h.265l-.09.174h.264l-.09.175h.264l-.09.175h.264l-.09.174h.265l-.09.176h.264l-.09.175h.264l-.09.175h.264l-.09.174h.265l-.09.175h.264l-.09.175h.265l-.09.176h.264l-.09.174h.265l-.09.174h.265l-.09.176h.265l-.09.174h.265l-.09.176h.265l-.09.174h.264l-.09.175h.264l-.09.175h.265l-.09.175h.265l-.09.175h.265l-.09.174h.264l-.09.176h.264l-.09.174h.264l-.09.176h.264l-.09.174h.265l-.09.175h.265l-.09.175h.265l-.09.174h.264l-.09.176h.264l-.09.174h.264l-.09.176h.265l-.09.174h.264l-.09.176h.265l-.09.174h.264l-.09.175h.265l-.09.175h.264l-.09.174h.264l-.09.176h.265l-.09.174h.265l-.09.175h.264l-.09.175h.264l-.09.175h.264l-.09.175h.265l-.09.175h.264l-.09.174h.265l-.09.175h.265l-.09.176h.265l-.09.174h.264l-.09.175h.264l-.09.175h.264l-.09.175h.265l-.09.175h.264l-.09.175h.264l-.09.174h.264l-.09.175h.264l-.09.176h.264l-.09.174h.265l-.09.175h.265l-.09.175h.265l-.09.174h.264l-.09.176h.265l-.09.174h.265l-.09.175h.265l-.09.175h.265l-.09.175h.264l-.09.175h.264l-.09.175h.265l-.09.175h.264l-.09.174h.264l-.09.176h.265l-.09.174h.265l-.09.175h.264l-.09.175h.264l-.09.174h.264l-.09.176h.264l-.09.174h.264l-.09.176h.264l-.09.174h.265l-.09.176h.265l-.09.174h.265l-.09.176h.264l-.09.174h.265l-.09.174h.265l-.09.176h.264l-.09.174h.265l-.09.176h.265l-.09.174h.265l-.09.176h.264l-.09.174h.265l-.09.175h.265l-.09.175h.264l-.09.174h.264l-.09.176h.264l-.09.174h.265l-.09.176h.265l-.09.174h.265l-.09.175h.264l-.09.175h.264l-.09.175h.264l-.09.175h.265l-.09.174h.264l-.09.176h.265l-.09.174h.265l-.09.176h.264l-.09.174h.264l-.09.175h.265l-.09.175h.264l-.09.174h.265l-.09.176h.264l-.09.174h.265l-.09.176h.265l-.09.174h.264l-.09.175h.264l-.09.175h.265l-.09.175h.264l-.09.175h.264l-.09.174h.264l-.09.175h.264l-.09.175h.265l-.09.176h.264l-.09.174h.264l-.09.175h.265l-.09.175h.264l-.09.174h.264l-.09.176h.264l-.09.174h.265l-.09.176h.265l-.09.174h.264l-.09.175h.265l-.09.175h.265l-.09.174h.265l-.09.176h.265l-.09.174h.264l-.09.175h.265l-.09.175h.264l-.09.175h.264l-.09.175h.264l-.09.175h.265l-.09.175h.265l-.09.174h.265l-.09.176h.264l-.09.174h.265l-.09.175h.264l-.09.175h.264l-.09.175h.264l-.09.175h.265l-.09.175h.265l-.09.175h.264l-.09.174h.264l-.09.176h.265l-.09.174h.264l-.09.176h.264l-.09.174h.265l-.09.175h.265l-.09.175h.265l-.09.174h.264l-.09.176h.264l-.09.174h.265l-.09.175h.264l-.09.175h.265l-.09.176h.264l-.09.174h.265l-.09.174h.264l-.09.176h.264l-.09.174h6.937l3.746-7.272h.139l-.09.175h.264l-.089.175h.264l-.089.175h.264l-.09.174h.264l-.09.176h.264l-.089.174h.264l-.09.176h.264l-.09.174h.264l-.09.175h.264l-.09.175h.264l-.089.175h.264l-.09.175h.264l-.09.175h.264l-.089.174h6.381l.058.111h.083l.091.175h.083l.091.174h.083l.091.176h.083l.091.174h.083l.091.175h.083l.091.175h.083l.091.175h.083l.091.175h.083l.091.175h.083l.091.175h.083l.091.174h.083l.091.176h.083l.091.174h.083l.091.176h.083l.091.174h.083l.091.175h.083l.091.175h.083l.091.174h.083l.091.176h.083l.091.174h.083l.091.175h.083l.091.175h.083l.092.176h.083l.091.174h.083l.091.174h.083l.091.176h.083l.091.174Z" transform="translate(2449.819 -12907.932)" fill="url(#linear-gradient-3)"/>
    </g>
    <path id="减去_6" data-name="减去 6" d="M30.905,30.02H23.994l-.674-1.289h6.3L15.127.6l.315-.6L30.905,30.02h0Zm-24.016,0H0l.663-1.289H5.6l6.63-12.873L9.768,11.027l.317-.617,3.434,6.737L6.889,30.02Zm13.984-4.795H12.915l.661-1.289H20.2l.674,1.289Z" transform="translate(15.234 12.457)" opacity="0.223" style="mix-blend-mode: overlay;isolation: isolate"/>
    <path id="减去_7" data-name="减去 7" d="M30.905,30.02H23.994l-.674-1.289h6.3L15.127.6l.315-.6L30.905,30.02h0Zm-24.016,0H0l.663-1.289H5.6l6.63-12.873L9.768,11.027l.317-.617,3.434,6.737L6.889,30.02Zm13.984-4.795H12.915l.661-1.289H20.2l.674,1.289Z" transform="translate(15.469 12.457)" opacity="0.195" style="mix-blend-mode: overlay;isolation: isolate"/>
    <g transform="matrix(1, 0, 0, 1, 0, 0)" filter="url(#路径_1)">
      <path id="路径_1-2" data-name="路径 1" d="M-2761.7,12949.57l10.086-19.609,3.434,6.737-6.63,12.872Zm23.995,0-2.505-4.794h-8.574l3.088-6.025h2.419l-6.479-12.5,3.5-6.7,15.463,30.02Z" transform="translate(2776.23 -12907.8)" fill="url(#linear-gradient-4)"/>
    </g>
    <path id="减去_5" data-name="减去 5" d="M1.356,14.187H0L7.316,0l.67,1.314L1.356,14.187Zm24.016,0H18.461l-.475-.909H24.9l.468.909Z" transform="translate(20.065 27.587)" style="mix-blend-mode: overlay;isolation: isolate"/>
    <path id="减去_4" data-name="减去 4" d="M1.42,30.02H0L10.086,10.41l.707,1.386L1.42,30.02Zm12.907-4.795H12.915L16,19.2H17.49l-.141.041-3.023,5.985ZM12.671,8.1h0l-.728-1.4,3.5-6.7.71,1.378L12.671,8.1Z" transform="translate(14.531 11.754)" fill="#fff"/>
  </g>
</svg>
