<svg xmlns="http://www.w3.org/2000/svg" xmlns:xlink="http://www.w3.org/1999/xlink" width="1024" height="1024" viewBox="0 0 1024 1024">
  <defs>
    <linearGradient id="linear-gradient" x1="0.232" y1="0.117" x2="0.83" y2="0.84" gradientUnits="objectBoundingBox">
      <stop offset="0" stop-color="#3ee7fd"/>
      <stop offset="1" stop-color="#4b91ff"/>
    </linearGradient>
    <linearGradient id="linear-gradient-2" x1="0.232" y1="0.349" x2="0.7" y2="0.73" gradientUnits="objectBoundingBox">
      <stop offset="0" stop-color="#419de2"/>
      <stop offset="1" stop-color="#2489d4" stop-opacity="0"/>
    </linearGradient>
    <clipPath id="clip-FDM切片软件图标">
      <rect width="1024" height="1024"/>
    </clipPath>
  </defs>
  <g id="FDM切片软件图标" clip-path="url(#clip-FDM切片软件图标)">
    <path id="bg-2" d="M-666.813,1145.555v-355.2a156.819,156.819,0,0,0-78.328-135.8l-307.339-177.6a156.526,156.526,0,0,0-156.659,0l-307.346,177.6a156.821,156.821,0,0,0-78.328,135.8v355.2a156.821,156.821,0,0,0,78.328,135.8l307.344,177.6a156.525,156.525,0,0,0,156.659,0l307.339-177.6A156.819,156.819,0,0,0-666.813,1145.555Z" transform="translate(1642.813 -455.946)" fill="url(#linear-gradient)"/>
    <path id="路径_52" data-name="路径 52" d="M-671.2,1110.34l.422,29.524c.179,56.006-24.669,109.989-73.072,138.165l-306.809,178.513A156.416,156.416,0,0,1-1087.279,1472l-2.339.007-305.048-303.172,171.983-334.618L-1085.545,969.5-1190.98,770.817l59.71-114.256Z" transform="translate(1642.813 -455.946)" fill="url(#linear-gradient-2)"/>
    <path id="路径_50" data-name="路径 50" d="M-1158.076,949.2l-54.606-104.984-10-10,4.523,8.873L-1385.728,1168.9h-9.085l6,6h0l117.58,0h0Z" transform="translate(1642.813 -455.946)" fill="#217fd3"/>
    <path id="路径_51" data-name="路径 51" d="M-857.363,1174.9l-261.907-508.34-12-10,4.534,8.8-58.244,111.456L-1074.4,990.233h-41.286l-49.633,96.837h-9.076l6,6h146.331l39.624,75.827h-2.864l6,6h121.944Z" transform="translate(1642.813 -455.946)" fill="#217fd3"/>
    <path id="路径_1-2" data-name="路径 1-2" d="M-1394.813,1168.9l172.131-334.68,58.606,114.984-113.157,219.7Zm409.506,0-42.759-81.827H-1174.4l52.708-102.836h41.286L-1190.98,770.817l59.71-114.261,263.907,512.34Z" transform="translate(1642.813 -455.946)" fill="#dde6ed"/>
    <path id="减去_5" data-name="减去 5" d="M-1277.233,1168.9h-23.138l124.865-242.121,11.429,22.426-113.156,219.7Zm409.87,0H-985.306l-8.107-15.515h118.06l7.991,15.514Z" transform="translate(1642.813 -455.946)" fill="#c7d7e1"/>
    <path id="减去_4" data-name="减去 4" d="M-1370.585,1168.9h-24.228l172.13-334.679,12.061,23.662L-1370.585,1168.9Zm220.272-81.826H-1174.4l52.708-102.834h25.381l-2.409.694-51.595,102.141Zm-28.246-292.275h0l-12.421-23.972,59.71-114.262,12.112,23.514-59.4,114.721Z" transform="translate(1642.813 -455.946)" fill="#fff"/>
  </g>
</svg>
