<svg xmlns="http://www.w3.org/2000/svg" xmlns:xlink="http://www.w3.org/1999/xlink" width="36" height="36" viewBox="0 0 36 36">
  <defs>
    <clipPath id="clip-icon-Skirt_and_brim-sel">
      <rect width="36" height="36"/>
    </clipPath>
  </defs>
  <g id="icon-Skirt_and_brim-sel" data-name="icon-Skirt and brim-sel" clip-path="url(#clip-icon-Skirt_and_brim-sel)">
    <g id="组_1983" data-name="组 1983" transform="translate(139 -40)">
      <path id="路径_1655" data-name="路径 1655" d="M-117.531,50.3a1.787,1.787,0,0,1,1.538.884l3.451,5.919a1.787,1.787,0,0,1,0,1.794l-3.451,5.919a1.787,1.787,0,0,1-1.538.884h-6.937a1.786,1.786,0,0,1-1.538-.884l-3.451-5.919a1.782,1.782,0,0,1,0-1.794l3.451-5.919a1.786,1.786,0,0,1,1.538-.884h6.937m0-.3h-6.937a2.081,2.081,0,0,0-1.8,1.033l-3.45,5.919a2.079,2.079,0,0,0,0,2.1l3.45,5.919a2.081,2.081,0,0,0,1.8,1.033h6.937a2.079,2.079,0,0,0,1.8-1.033l3.451-5.919a2.084,2.084,0,0,0,0-2.1l-3.451-5.919a2.079,2.079,0,0,0-1.8-1.033Z" fill="#fff"/>
      <path id="路径_1656" data-name="路径 1656" d="M-117.531,51.3a.786.786,0,0,1,.675.388l3.45,5.919a.778.778,0,0,1,0,.786l-3.45,5.919a.786.786,0,0,1-.675.388h-6.937a.785.785,0,0,1-.674-.388l-3.451-5.919a.783.783,0,0,1,0-.786l3.451-5.919a.785.785,0,0,1,.674-.388h6.937m0-.3h-6.937a1.084,1.084,0,0,0-.933.537l-3.451,5.919a1.085,1.085,0,0,0,0,1.088l3.451,5.919a1.084,1.084,0,0,0,.933.537h6.937a1.087,1.087,0,0,0,.934-.537l3.451-5.919a1.085,1.085,0,0,0,0-1.088l-3.451-5.919a1.087,1.087,0,0,0-.934-.537Z" fill="#fff"/>
      <path id="路径_1657" data-name="路径 1657" d="M-117.7,52.3l3.344,5.661-3.3,5.738H-124.3l-3.344-5.662,3.277-5.7,6.663-.039m.17-.3-7.007.041-3.45,6,3.52,5.96h6.937l.07-.041,3.451-6L-117.531,52Z" fill="#fff"/>
      <path id="路径_1658" data-name="路径 1658" d="M-123.9,63l-2.934-4.967,2.874-5L-118.1,53l2.932,4.964-2.9,5.033Z" fill="#fff"/>
    </g>
  </g>
</svg>
