<svg xmlns="http://www.w3.org/2000/svg" xmlns:xlink="http://www.w3.org/1999/xlink" width="36" height="36" viewBox="0 0 36 36">
  <defs>
    <clipPath id="clip-icon_fast-nor">
      <rect width="36" height="36"/>
    </clipPath>
  </defs>
  <g id="icon_fast-nor" data-name="icon—fast-nor" clip-path="url(#clip-icon_fast-nor)">
    <g id="组_1796" data-name="组 1796" transform="translate(-1634 -477)">
      <rect id="矩形_384" data-name="矩形 384" width="36" height="36" transform="translate(1634 477)" fill="none" opacity="0.542"/>
      <path id="路径_1621" data-name="路径 1621" d="M341,92a10,10,0,1,0,10,10v0A10.011,10.011,0,0,0,341,92Zm.787,9.917v-1.75a.779.779,0,0,0-.537-.736.573.573,0,0,0-.25-.061.566.566,0,0,0-.25.061.78.78,0,0,0-.537.736v1.75h-6.862a7.6,7.6,0,0,1,1.782-4.88l1.009,1.008a.787.787,0,0,0,1.138-1.088l-1.025-1.026a7.593,7.593,0,0,1,3.952-1.6v1.679a.786.786,0,1,0,1.573,0v-1.58c0-.006.006-.009.006-.014s-.005-.008-.006-.014v-.071A7.589,7.589,0,0,1,345.7,95.9l-1,1a.788.788,0,1,0,1.115,1.115L346.833,97a7.6,7.6,0,0,1,1.813,4.916Z" transform="translate(1311 393)" fill="#ff805c"/>
    </g>
  </g>
</svg>
