<svg xmlns="http://www.w3.org/2000/svg" xmlns:xlink="http://www.w3.org/1999/xlink" width="28" height="28" viewBox="0 0 28 28">
  <defs>
    <clipPath id="clip-icon-material-click">
      <rect width="28" height="28"/>
    </clipPath>
  </defs>
  <g id="icon-material-click" clip-path="url(#clip-icon-material-click)">
    <g id="icon" transform="translate(-1628 -188)">
      <rect id="矩形_381" data-name="矩形 381" width="28" height="28" transform="translate(1628 188)" fill="none" opacity="0.542"/>
      <g id="组_1945" data-name="组 1945" transform="translate(1498 117)">
        <ellipse id="椭圆_126" data-name="椭圆 126" cx="1.295" cy="3.603" rx="1.295" ry="3.603" transform="translate(137.598 81.397)" fill="#1d69e0"/>
        <path id="路径_1608" data-name="路径 1608" d="M152.159,93a.823.823,0,0,1-.84-.8v-.663l-.357.392A2.857,2.857,0,0,1,148.838,93a2.607,2.607,0,0,1-1.5-.5l-.117-.082-.117.082a2.566,2.566,0,0,1-1.491.5,2.6,2.6,0,0,1-1.5-.5l-.117-.082-.117.082a2.563,2.563,0,0,1-1.49.5,2.607,2.607,0,0,1-1.5-.5l-.118-.082-.116.082a2.566,2.566,0,0,1-1.491.5c-2.359,0-4.148-3.419-4.161-7.952V77.8a.841.841,0,0,1,1.681,0v.664l.357-.392A2.857,2.857,0,0,1,139.162,77a2.566,2.566,0,0,1,1.491.5l.116.082.118-.082a2.607,2.607,0,0,1,1.5-.5,2.573,2.573,0,0,1,1.49.5l.117.082.117-.082a2.611,2.611,0,0,1,1.5-.5,2.568,2.568,0,0,1,1.491.5l.117.082.117-.082a2.607,2.607,0,0,1,1.5-.5c2.357,0,4.146,3.415,4.161,7.944V92.2A.823.823,0,0,1,152.159,93Zm-3.321-14.3a.825.825,0,0,0-.284.055l-.223.084.117.209.181.354.15.31c.059.133.114.272.169.411l.075.19c.07.195.137.4.2.6a14.576,14.576,0,0,1,.554,4.08,14.336,14.336,0,0,1-.537,4.026c-.079.263-.145.463-.215.656l-.052.132c-.079.2-.133.338-.191.469-.039.085-.17.349-.17.349l-.214.4.158.2a.825.825,0,0,0,.284.055c1.147,0,2.481-2.75,2.481-6.3S149.985,78.7,148.838,78.7Zm-3.226,0a.816.816,0,0,0-.283.055l-.223.085.117.208.221.436c.037.075.074.149.109.227.06.134.115.274.17.414l.074.187c.071.195.136.395.2.6a15.342,15.342,0,0,1,.019,8.109c-.082.267-.146.466-.217.658l-.043.113c-.087.218-.141.356-.2.488l-.271.546-.112.208.158.2a.816.816,0,0,0,.283.055c.7,0,1.477-1.036,1.97-2.641l.035-.116c.091-.313.176-.644.244-1,.064-.336.111-.688.149-1.049l.03-.322c.031-.376.054-.759.054-1.166s-.023-.791-.054-1.167l-.03-.321c-.038-.361-.085-.712-.147-1.037-.071-.372-.155-.7-.245-1.015l-.037-.118C147.088,79.738,146.315,78.7,145.612,78.7Zm-3.224,0a.848.848,0,0,0-.282.053l-.227.082.118.211.164.322c.086.171.129.258.17.348.056.126.107.257.159.388l.083.212c.069.19.133.384.193.584a15.323,15.323,0,0,1,.022,8.122c-.08.266-.145.464-.215.656l-.05.128c-.083.211-.136.344-.192.47-.038.086-.166.343-.166.343l-.218.411.157.209a.825.825,0,0,0,.284.055c.7,0,1.475-1.035,1.968-2.639l.037-.119c.09-.312.175-.644.243-1,.064-.336.111-.688.149-1.049l.03-.323c.03-.375.054-.758.054-1.165s-.024-.791-.054-1.167l-.03-.322c-.038-.359-.085-.711-.147-1.036-.071-.371-.155-.7-.245-1.014l-.037-.12C143.863,79.738,143.09,78.7,142.388,78.7Zm-3.226,0c-1.147,0-2.481,2.75-2.481,6.3s1.334,6.3,2.481,6.3c.7,0,1.476-1.036,1.97-2.641l.035-.115c.091-.314.175-.646.244-1,.064-.332.11-.685.148-1.048l.03-.322c.031-.376.054-.759.054-1.166s-.023-.791-.054-1.167l-.03-.321c-.038-.363-.084-.715-.147-1.042-.07-.366-.154-.7-.245-1.01l-.036-.119C140.639,79.739,139.866,78.7,139.162,78.7Z" fill="#1d69e0"/>
      </g>
    </g>
  </g>
</svg>
