<svg xmlns="http://www.w3.org/2000/svg" xmlns:xlink="http://www.w3.org/1999/xlink" width="28" height="28" viewBox="0 0 28 28">
  <defs>
    <clipPath id="clip-Icon_账户">
      <rect width="28" height="28"/>
    </clipPath>
  </defs>
  <g id="Icon_账户" clip-path="url(#clip-Icon_账户)">
    <g id="icon-邮箱" transform="translate(0 0.049)">
      <rect id="占位" width="28" height="28" fill="none" opacity="0.53"/>
      <g id="组_2218" data-name="组 2218" transform="translate(1031.992 48.065)">
        <path id="路径_1917" data-name="路径 1917" d="M-1011.734-41.065h-12.518a2.7,2.7,0,0,0-2.741,2.657v8.687a2.7,2.7,0,0,0,2.741,2.656h12.518a2.7,2.7,0,0,0,2.741-2.656v-8.687A2.7,2.7,0,0,0-1011.734-41.065Zm1.741,11.344a1.7,1.7,0,0,1-1.741,1.656h-12.518a1.7,1.7,0,0,1-1.741-1.656v-8.687a1.7,1.7,0,0,1,1.741-1.657h12.518a1.7,1.7,0,0,1,1.741,1.657Z" fill="#7f7f7f"/>
        <g id="组_2214" data-name="组 2214">
          <path id="路径_1918" data-name="路径 1918" d="M-1012.493-36.065h-4a.5.5,0,0,1-.5-.5.5.5,0,0,1,.5-.5h4a.5.5,0,0,1,.5.5A.5.5,0,0,1-1012.493-36.065Z" fill="#7f7f7f"/>
        </g>
        <g id="组_2215" data-name="组 2215">
          <path id="路径_1919" data-name="路径 1919" d="M-1012.493-33.065h-3a.5.5,0,0,1-.5-.5.5.5,0,0,1,.5-.5h3a.5.5,0,0,1,.5.5A.5.5,0,0,1-1012.493-33.065Z" fill="#7f7f7f"/>
        </g>
        <g id="组_2216" data-name="组 2216">
          <path id="路径_1920" data-name="路径 1920" d="M-1012.493-30.065h-2a.5.5,0,0,1-.5-.5.5.5,0,0,1,.5-.5h2a.5.5,0,0,1,.5.5A.5.5,0,0,1-1012.493-30.065Z" fill="#7f7f7f"/>
        </g>
        <path id="路径_1921" data-name="路径 1921" d="M-1020.684-38.065a2.35,2.35,0,0,0-2.347,2.347,2.35,2.35,0,0,0,2.347,2.347,2.35,2.35,0,0,0,2.346-2.347A2.35,2.35,0,0,0-1020.684-38.065Zm0,3.694a1.348,1.348,0,0,1-1.347-1.347,1.348,1.348,0,0,1,1.347-1.347,1.348,1.348,0,0,1,1.346,1.347A1.348,1.348,0,0,1-1020.684-34.371Z" fill="#7f7f7f"/>
        <g id="组_2217" data-name="组 2217">
          <path id="路径_1922" data-name="路径 1922" d="M-1017.375-30.065a.5.5,0,0,1-.5-.5,2.811,2.811,0,0,0-2.809-2.807,2.811,2.811,0,0,0-2.809,2.807.5.5,0,0,1-.5.5.5.5,0,0,1-.5-.5,3.812,3.812,0,0,1,3.809-3.806,3.812,3.812,0,0,1,3.809,3.806A.5.5,0,0,1-1017.375-30.065Z" fill="#7f7f7f"/>
        </g>
      </g>
    </g>
  </g>
</svg>
