<svg xmlns="http://www.w3.org/2000/svg" xmlns:xlink="http://www.w3.org/1999/xlink" width="28" height="28" viewBox="0 0 28 28">
  <defs>
    <clipPath id="clip-Icon_密码">
      <rect width="28" height="28"/>
    </clipPath>
  </defs>
  <g id="Icon_密码" clip-path="url(#clip-Icon_密码)">
    <g id="icon-密码" transform="translate(0 0.049)">
      <rect id="占位" width="28" height="28" fill="none" opacity="0.46"/>
      <g id="组_2220" data-name="组 2220" transform="translate(1010.534 48.921)">
        <path id="路径_1926" data-name="路径 1926" d="M-992.413-37.947v-1.1a4.12,4.12,0,0,0-4.121-4.12,4.12,4.12,0,0,0-4.121,4.12v1.1a2.671,2.671,0,0,0-2.06,2.62v5.963a2.655,2.655,0,0,0,2.617,2.685h7.129a2.655,2.655,0,0,0,2.616-2.685v-5.963A2.671,2.671,0,0,0-992.413-37.947Zm-7.212-1.1a3.094,3.094,0,0,1,3.091-3.09,3.094,3.094,0,0,1,3.091,3.09v1.031h-6.182Zm8.242,9.678a1.607,1.607,0,0,1-1.586,1.622h-7.129a1.607,1.607,0,0,1-1.587-1.622v-5.962a1.607,1.607,0,0,1,1.587-1.623h7.129a1.607,1.607,0,0,1,1.586,1.623Z" fill="#7f7f7f"/>
        <rect id="矩形_643" data-name="矩形 643" width="2.06" height="3.091" rx="1" transform="translate(-997.564 -33.891)" fill="#7f7f7f"/>
      </g>
    </g>
  </g>
</svg>
