<svg xmlns="http://www.w3.org/2000/svg" xmlns:xlink="http://www.w3.org/1999/xlink" width="36" height="36" viewBox="0 0 36 36">
  <defs>
    <clipPath id="clip-icon-general-click">
      <rect width="36" height="36"/>
    </clipPath>
  </defs>
  <g id="icon-general-click" clip-path="url(#clip-icon-general-click)">
    <g id="组_1980" data-name="组 1980" transform="translate(193 -19)">
      <path id="路径_1648" data-name="路径 1648" d="M-168.141,30a.141.141,0,0,1,.141.141v1.718a.141.141,0,0,1-.141.141h-13.718a.141.141,0,0,1-.141-.141V30.141a.141.141,0,0,1,.141-.141h13.718m0-1h-13.718A1.141,1.141,0,0,0-183,30.141v1.718A1.141,1.141,0,0,0-181.859,33h13.718A1.141,1.141,0,0,0-167,31.859V30.141A1.141,1.141,0,0,0-168.141,29Z" fill="#1d69e0"/>
      <path id="路径_1649" data-name="路径 1649" d="M-168.141,42a.141.141,0,0,1,.141.141v1.718a.141.141,0,0,1-.141.141h-13.718a.141.141,0,0,1-.141-.141V42.141a.141.141,0,0,1,.141-.141h13.718m0-1h-13.718A1.141,1.141,0,0,0-183,42.141v1.718A1.141,1.141,0,0,0-181.859,45h13.718A1.141,1.141,0,0,0-167,43.859V42.141A1.141,1.141,0,0,0-168.141,41Z" fill="#1d69e0"/>
      <rect id="矩形_550" data-name="矩形 550" width="16" height="6" rx="1.141" transform="translate(-183 34)" fill="#1d69e0"/>
    </g>
  </g>
</svg>
