<svg width="450" height="212" viewBox="0 0 450 212" fill="none" xmlns="http://www.w3.org/2000/svg">
<g id="&#230;&#151;&#160;&#230;&#137;&#147;&#229;&#141;&#176;&#230;&#156;&#186;" clip-path="url(#clip0_105_275)">
<g id="Group 63">
<path id="&#230;&#164;&#173;&#229;&#156;&#134; 24" opacity="0.3" d="M225 299.618C349.264 299.618 450 268.278 450 229.618C450 190.958 349.264 159.618 225 159.618C100.736 159.618 0 190.958 0 229.618C0 268.278 100.736 299.618 225 299.618Z" fill="url(#paint0_linear_105_275)"/>
<path id="cloud" opacity="0.04" d="M190.324 6.06865C189.592 4.13774 188.291 2.4751 186.592 1.30177C184.893 0.128445 182.877 -0.5 180.813 -0.5C178.748 -0.5 176.732 0.128445 175.033 1.30177C173.334 2.4751 172.033 4.13774 171.302 6.06865C169.812 6.46529 168.517 7.38983 167.658 8.67014C166.799 9.95044 166.435 11.4993 166.633 13.0282C166.831 14.5572 167.578 15.962 168.734 16.9813C169.891 18.0005 171.379 18.5647 172.921 18.5686H188.693C190.235 18.5673 191.725 18.0051 192.884 16.9867C194.042 15.9683 194.791 14.5634 194.991 13.0336C195.19 11.5039 194.827 9.95388 193.968 8.67242C193.109 7.39096 191.814 6.46554 190.324 6.06865Z" fill="url(#paint1_linear_105_275)"/>
<path id="cloud_2" opacity="0.06" d="M144.617 80.4126C143.168 76.5832 140.588 73.2855 137.219 70.9581C133.85 68.6306 129.853 67.3836 125.759 67.3828C121.664 67.3821 117.667 68.6276 114.297 70.9538C110.928 73.28 108.346 76.5767 106.896 80.4056C103.932 81.1845 101.354 83.0161 99.6423 85.5581C97.931 88.1001 97.2041 91.1784 97.5976 94.2174C97.991 97.2564 99.4779 100.048 101.78 102.07C104.083 104.093 107.043 105.207 110.107 105.206H141.382C144.442 105.204 147.397 104.09 149.696 102.07C151.995 100.05 153.481 97.2629 153.877 94.2284C154.272 91.1939 153.551 88.119 151.846 85.5774C150.142 83.0357 147.571 81.2007 144.614 80.4146L144.617 80.4126Z" fill="url(#paint2_linear_105_275)"/>
<path id="cloud_3" opacity="0.08" d="M355.864 109.607C353.756 104.038 350.004 99.2417 345.104 95.8568C340.205 92.4719 334.392 90.6583 328.437 90.6572C322.482 90.6561 316.668 92.4676 311.768 95.8507C306.867 99.2338 303.113 104.028 301.003 109.597C296.697 110.733 292.952 113.398 290.467 117.094C287.982 120.79 286.927 125.263 287.499 129.68C288.071 134.097 290.231 138.154 293.575 141.095C296.92 144.035 301.221 145.658 305.674 145.66H351.16C355.611 145.658 359.909 144.037 363.252 141.099C366.596 138.162 368.757 134.108 369.332 129.695C369.908 125.282 368.858 120.81 366.379 117.113C363.9 113.417 360.161 110.748 355.86 109.605L355.864 109.607Z" fill="url(#paint3_linear_105_275)"/>
<path id="&#230;&#164;&#173;&#229;&#156;&#134; 23" d="M225 185.618C260.899 185.618 290 184.947 290 184.118C290 183.29 260.899 182.618 225 182.618C189.101 182.618 160 183.29 160 184.118C160 184.947 189.101 185.618 225 185.618Z" fill="url(#paint4_radial_105_275)"/>
<g id="Group 57">
<rect id="Rectangle 24" x="167.3" y="169.656" width="108.84" height="9.91908" fill="#D9D9D9"/>
<rect id="Rectangle 40" x="185.299" y="161.564" width="75.5225" height="8.09214" fill="#B4B4B4"/>
<path id="Rectangle 44" d="M187.129 158.185H194.739H204.18H213.62H223.06H236.51H258.992L260.822 161.564H185.299L187.129 158.185Z" fill="url(#paint5_linear_105_275)"/>
<rect id="Rectangle 41" x="221.532" y="151.021" width="15.6814" height="10.5426" fill="#D9D9D9"/>
<path id="Rectangle 38" d="M188.958 144.697H257.162L260.822 151.022H185.299L188.958 144.697Z" fill="#B4B4B4"/>
<path id="Rectangle 32" d="M173.738 27.533H189.744L191.343 29.3626H198.431L201.168 26.6182H223.11H245.051L247.788 29.3626H254.876L256.476 27.533H272.481L274.311 31.445V39.0163H261.511L257.858 37.1867H223.11H188.361L184.709 39.0163H171.908V31.445L173.738 27.533Z" fill="#D9D9D9"/>
<rect id="Rectangle 29" x="173.346" y="39.0161" width="11.9533" height="130.64" fill="#C9C9C9"/>
<rect id="Rectangle 30" x="260.822" y="39.0161" width="11.9533" height="130.64" fill="#C9C9C9"/>
<rect id="Rectangle 33" x="260.822" y="146.095" width="30.9565" height="17.2956" fill="#D9D9D9"/>
<path id="Rectangle 34" d="M271.847 88.1079H282.751L279.626 99.5144H266.1L271.847 88.1079Z" fill="#D9D9D9"/>
<path id="Rectangle 35" d="M271.847 116.81H282.751L279.626 105.404H266.1L271.847 116.81Z" fill="#D9D9D9"/>
<path id="Rectangle 36" d="M174.236 116.81H163.332L166.458 105.404H179.984L174.236 116.81Z" fill="#D9D9D9"/>
<path id="Rectangle 37" d="M174.236 88.1079H163.332L166.458 99.5144H179.984L174.236 88.1079Z" fill="#D9D9D9"/>
<rect id="Rectangle 28" x="154.543" y="99.5142" width="137.235" height="5.88909" fill="#B4B4B4"/>
<rect id="Rectangle 45" width="2.25419" height="5.88909" transform="matrix(-1 0 0 1 295.457 99.5142)" fill="#B4B4B4"/>
<rect id="Rectangle 25" x="170.955" y="179.576" width="5.76089" height="4.21849" fill="#B4B4B4"/>
<rect id="Rectangle 26" x="266.798" y="179.576" width="5.76089" height="4.21849" fill="#B4B4B4"/>
<path id="Rectangle 27" d="M221.009 179.576H249.928L248.099 183.794H222.839L221.009 179.576Z" fill="#B4B4B4"/>
<path id="Vector 7" d="M157.189 99.534C157.189 91.6253 173.827 83.8119 180.786 76.2003C187.744 68.5886 193.973 58.1362 204.524 58.1362C213.594 58.1362 222.618 63.2966 222.618 81.3269" stroke="#D9D9D9" stroke-width="5"/>
<g id="Group 58">
<path id="Rectangle 39" d="M212.282 160.037L216.646 157.293H221.009H225.373L229.737 160.037V160.384V163.475V166.912L224.248 169.656H221.009H217.771L212.282 166.912V163.475V160.384V160.037Z" fill="#C9C9C9"/>
<path id="Polygon 1" d="M221.009 159.525L224.431 161.5V165.451L221.009 167.426L217.588 165.451V161.5L221.009 159.525Z" fill="#D9D9D9"/>
</g>
<g id="Group 59">
<path id="Rectangle 31" d="M211.063 82.9104L222.634 80.166L234.205 82.9104V98.3371V113.764L222.634 116.508L211.063 113.764V98.3371V82.9104Z" fill="#C9C9C9"/>
<circle id="Ellipse 1" cx="222.634" cy="98.3368" r="6.45102" fill="#D9D9D9"/>
</g>
</g>
</g>
</g>
<defs>
<linearGradient id="paint0_linear_105_275" x1="225" y1="159.618" x2="225" y2="196.298" gradientUnits="userSpaceOnUse">
<stop stop-color="#BFBFBF"/>
<stop offset="1" stop-color="#808080" stop-opacity="0"/>
</linearGradient>
<linearGradient id="paint1_linear_105_275" x1="180.812" y1="-0.5" x2="180.812" y2="18.5686" gradientUnits="userSpaceOnUse">
<stop stop-opacity="0"/>
<stop offset="1" stop-color="#545454"/>
</linearGradient>
<linearGradient id="paint2_linear_105_275" x1="125.738" y1="67.3828" x2="125.738" y2="105.206" gradientUnits="userSpaceOnUse">
<stop stop-opacity="0"/>
<stop offset="1" stop-color="#545454"/>
</linearGradient>
<linearGradient id="paint3_linear_105_275" x1="328.416" y1="90.6572" x2="328.416" y2="145.66" gradientUnits="userSpaceOnUse">
<stop stop-opacity="0"/>
<stop offset="1" stop-color="#545454"/>
</linearGradient>
<radialGradient id="paint4_radial_105_275" cx="0" cy="0" r="1" gradientUnits="userSpaceOnUse" gradientTransform="translate(225 184.118) scale(65 1.5)">
<stop stop-opacity="0.4"/>
<stop offset="1" stop-opacity="0"/>
</radialGradient>
<linearGradient id="paint5_linear_105_275" x1="223.06" y1="158.185" x2="223.06" y2="161.564" gradientUnits="userSpaceOnUse">
<stop stop-color="#D9D9D9" stop-opacity="0.24"/>
<stop offset="1" stop-color="#D9D9D9"/>
</linearGradient>
<clipPath id="clip0_105_275">
<rect width="450" height="212" fill="white"/>
</clipPath>
</defs>
</svg>
