<svg xmlns="http://www.w3.org/2000/svg" xmlns:xlink="http://www.w3.org/1999/xlink" width="28" height="28" viewBox="0 0 28 28">
  <defs>
    <clipPath id="clip-Icon_账户类型">
      <rect width="28" height="28"/>
    </clipPath>
  </defs>
  <g id="Icon_账户类型" clip-path="url(#clip-Icon_账户类型)">
    <g id="icon-用户名类型" transform="translate(0 0.049)">
      <rect id="占位" width="28" height="28" fill="none" opacity="0.53"/>
      <g id="组_2213" data-name="组 2213" transform="translate(1073.771 48.422)">
        <path id="路径_1913" data-name="路径 1913" d="M-1062.278-40.571a.779.779,0,0,1,.778.778v2.864a.779.779,0,0,1-.778.778h-2.864a.779.779,0,0,1-.778-.778v-2.864a.779.779,0,0,1,.778-.778h2.864m0-1.1h-2.864a1.883,1.883,0,0,0-1.883,1.883v2.864a1.882,1.882,0,0,0,1.883,1.882h2.864a1.882,1.882,0,0,0,1.883-1.882v-2.864a1.883,1.883,0,0,0-1.883-1.883Z" fill="#7f7f7f"/>
        <path id="路径_1914" data-name="路径 1914" d="M-1054.4-40.571a.778.778,0,0,1,.777.778v2.864a.778.778,0,0,1-.777.778h-2.864a.779.779,0,0,1-.778-.778v-2.864a.779.779,0,0,1,.778-.778h2.864m0-1.1h-2.864a1.883,1.883,0,0,0-1.883,1.883v2.864a1.882,1.882,0,0,0,1.883,1.882h2.864a1.882,1.882,0,0,0,1.882-1.882v-2.864a1.883,1.883,0,0,0-1.882-1.883Z" fill="#7f7f7f"/>
        <path id="路径_1915" data-name="路径 1915" d="M-1062.278-32.693a.779.779,0,0,1,.778.778v2.864a.779.779,0,0,1-.778.778h-2.864a.779.779,0,0,1-.778-.778v-2.864a.779.779,0,0,1,.778-.778h2.864m0-1.1h-2.864a1.883,1.883,0,0,0-1.883,1.883v2.864a1.883,1.883,0,0,0,1.883,1.883h2.864a1.883,1.883,0,0,0,1.883-1.883v-2.864a1.883,1.883,0,0,0-1.883-1.883Z" fill="#7f7f7f"/>
        <path id="路径_1916" data-name="路径 1916" d="M-1054.4-32.693a.778.778,0,0,1,.777.778v2.864a.778.778,0,0,1-.777.778h-2.864a.779.779,0,0,1-.778-.778v-2.864a.779.779,0,0,1,.778-.778h2.864m0-1.1h-2.864a1.883,1.883,0,0,0-1.883,1.883v2.864a1.883,1.883,0,0,0,1.883,1.883h2.864a1.883,1.883,0,0,0,1.882-1.883v-2.864A1.883,1.883,0,0,0-1054.4-33.8Z" fill="#7f7f7f"/>
      </g>
    </g>
  </g>
</svg>
