<svg xmlns="http://www.w3.org/2000/svg" xmlns:xlink="http://www.w3.org/1999/xlink" width="28" height="28" viewBox="0 0 28 28">
  <defs>
    <clipPath id="clip-icon-setting-off">
      <rect width="28" height="28"/>
    </clipPath>
  </defs>
  <g id="icon-setting-off" clip-path="url(#clip-icon-setting-off)">
    <g id="icon" transform="translate(-1628 -188)">
      <rect id="矩形_381" data-name="矩形 381" width="28" height="28" transform="translate(1628 188)" fill="none" opacity="0.542"/>
      <path id="路径_1532" data-name="路径 1532" d="M177,85.291V82.717a.429.429,0,0,0-.428-.429h-1.01a1.268,1.268,0,0,1-1.187-.794c-.03-.075-.06-.151-.091-.226a1.271,1.271,0,0,1,.272-1.4l.627-.627c.257-.257.255-.527.09-.694l-1.814-1.815a.428.428,0,0,0-.6,0l-.714.714a1.27,1.27,0,0,1-1.407.274c-.074-.033-.149-.063-.225-.091a1.27,1.27,0,0,1-.794-1.186v-.888c0-.363-.192-.554-.429-.554h-2.57a.429.429,0,0,0-.429.429v1.01a1.271,1.271,0,0,1-.794,1.189c-.076.029-.151.06-.225.091a1.269,1.269,0,0,1-1.4-.273l-.713-.714a.429.429,0,0,0-.606,0l-1.814,1.815a.429.429,0,0,0,0,.606l.714.714a1.273,1.273,0,0,1,.274,1.4c-.033.075-.063.15-.091.226a1.27,1.27,0,0,1-1.187.794h-1.014a.429.429,0,0,0-.429.429v2.573a.429.429,0,0,0,.429.427h1.009a1.27,1.27,0,0,1,1.187.794c.03.076.06.152.091.226a1.271,1.271,0,0,1-.276,1.4l-.714.714a.429.429,0,0,0,0,.606l1.814,1.815a.428.428,0,0,0,.605,0l.714-.714a1.268,1.268,0,0,1,1.4-.277c.075.033.15.063.226.091a1.27,1.27,0,0,1,.794,1.186v.885c0,.363.192.554.429.554h2.571a.429.429,0,0,0,.429-.429h0v-1a1.271,1.271,0,0,1,.793-1.188c.076-.029.152-.06.226-.09a1.268,1.268,0,0,1,1.4.277l.714.716a.429.429,0,0,0,.606,0l1.814-1.815a.428.428,0,0,0,0-.605h0l-.714-.715a1.272,1.272,0,0,1-.278-1.4c.033-.074.063-.15.091-.226a1.27,1.27,0,0,1,1.187-.794h1.009a.429.429,0,0,0,.429-.428Zm-9,1.286A2.573,2.573,0,1,1,170.57,84h0A2.572,2.572,0,0,1,168,86.577Z" transform="translate(1474 118)" fill="#3c4f73"/>
    </g>
  </g>
</svg>
