<?xml version="1.0" standalone="no"?><!DOCTYPE svg PUBLIC "-//W3C//DTD SVG 1.1//EN" "http://www.w3.org/Graphics/SVG/1.1/DTD/svg11.dtd"><svg t="1687239410682" class="icon" viewBox="0 0 1024 1024" version="1.1" xmlns="http://www.w3.org/2000/svg" p-id="11868" xmlns:xlink="http://www.w3.org/1999/xlink" width="200" height="200"><path d="M551.643429 512l208.464457-208.552229c10.525257-10.532571 10.525257-27.889371 0-38.414628l-1.141029-1.141029c-10.517943-10.525257-27.867429-10.525257-38.392686 0L512.109714 472.736914 303.637943 263.892114c-10.525257-10.525257-27.867429-10.525257-38.4 0l-1.133714 1.141029a26.806857 26.806857 0 0 0 0 38.414628L472.576 512 264.104229 720.552229c-10.525257 10.532571-10.525257 27.889371 0 38.414628l1.141028 1.141029c10.517943 10.525257 27.867429 10.525257 38.392686 0l208.471771-208.559543 208.464457 208.559543c10.525257 10.525257 27.867429 10.525257 38.4 0l1.133715-1.141029c10.525257-10.532571 10.525257-27.882057 0-38.414628L551.636114 512z" fill="#ffffff" p-id="11869"></path></svg>