<svg xmlns="http://www.w3.org/2000/svg" xmlns:xlink="http://www.w3.org/1999/xlink" width="36" height="36" viewBox="0 0 36 36">
  <defs>
    <clipPath id="clip-icon-advance_setting-click">
      <rect width="36" height="36"/>
    </clipPath>
  </defs>
  <g id="icon-advance_setting-click" clip-path="url(#clip-icon-advance_setting-click)">
    <g id="组_1974" data-name="组 1974" transform="translate(118 -18)">
      <path id="路径_1645" data-name="路径 1645" d="M-96,36.5h-.709a5.589,5.589,0,0,0-.49-1.18l.5-.5a1,1,0,0,0,0-1.411l-.71-.71a1,1,0,0,0-1.41,0l-.5.5a5.588,5.588,0,0,0-1.185-.487V32a1,1,0,0,0-1-1h-1a1,1,0,0,0-1,1v.71a5.533,5.533,0,0,0-1.18.489l-.5-.5a1,1,0,0,0-1.41,0l-.71.71a1,1,0,0,0,0,1.411l.5.5a5.588,5.588,0,0,0-.49,1.18H-108a1,1,0,0,0-1,1v1a1,1,0,0,0,1,1h.709a5.589,5.589,0,0,0,.49,1.18l-.5.5a1.006,1.006,0,0,0,0,1.415l.71.71a1,1,0,0,0,1.41,0l.5-.5a5.576,5.576,0,0,0,1.18.489V44a1,1,0,0,0,1,1h1a1,1,0,0,0,1-1v-.71a5.576,5.576,0,0,0,1.18-.489l.5.5a1,1,0,0,0,1.41,0l.71-.71a1.006,1.006,0,0,0,0-1.415l-.5-.5a5.589,5.589,0,0,0,.49-1.18H-96a1,1,0,0,0,1-1v-1A1,1,0,0,0-96,36.5Zm-4,1.508A2,2,0,0,1-102.007,40,2,2,0,0,1-104,37.993,2,2,0,0,1-101.993,36,2,2,0,0,1-100,37.993Z" fill="#1d69e0"/>
      <path id="路径_1549" data-name="路径 1549" d="M-91.463,31.92l-.392-.186a3.52,3.52,0,0,0,.038-.781l.408-.145a.613.613,0,0,0,.373-.784h0l-.2-.576a.615.615,0,0,0-.782-.372l-.411.144a3.269,3.269,0,0,0-.524-.578l.186-.392a.614.614,0,0,0-.289-.817l-.556-.263a.614.614,0,0,0-.817.289l-.186.4a3.461,3.461,0,0,0-.781-.038l-.145-.408a.613.613,0,0,0-.784-.373h0l-.576.2a.614.614,0,0,0-.372.781l.144.412a3.16,3.16,0,0,0-.578.524l-.393-.187a.614.614,0,0,0-.816.29l-.264.556a.6.6,0,0,0-.058.231,7.707,7.707,0,0,1,2.852,1.475,1.224,1.224,0,0,1,1.071-1.36,1.225,1.225,0,0,1,1.361,1.071A1.225,1.225,0,0,1-95.03,32.4a1.279,1.279,0,0,1-.29,0,7.648,7.648,0,0,1,1.479,2.864l.392-.138a.615.615,0,0,0,.373-.782l-.145-.411a3.167,3.167,0,0,0,.579-.524l.392.187a.615.615,0,0,0,.817-.29l.263-.556a.613.613,0,0,0-.289-.816Z" fill="#1d69e0"/>
    </g>
  </g>
</svg>
