<svg xmlns="http://www.w3.org/2000/svg" xmlns:xlink="http://www.w3.org/1999/xlink" width="36" height="36" viewBox="0 0 36 36">
  <defs>
    <clipPath id="clip-icon-detail-sel">
      <rect width="36" height="36"/>
    </clipPath>
  </defs>
  <g id="icon-detail-sel" class="cls-1">
    <path id="减去_8" data-name="减去 8" class="cls-2" fill="#fff" stroke="rgba(0,0,0,0)" stroke-miterlimit="10" d="M-629-714a.847.847,0,0,1-.412-.107l-9.176-5.1A.793.793,0,0,1-639-719.9V-730.1a.793.793,0,0,1,.412-.688l9.176-5.1A.851.851,0,0,1-629-736a.852.852,0,0,1,.412.106l9.175,5.1a.793.793,0,0,1,.412.688V-719.9a.793.793,0,0,1-.412.688l-9.175,5.1A.848.848,0,0,1-629-714Zm-5.056-13.455a.35.35,0,0,0-.338.25.357.357,0,0,0,.136.406l2.856,2a.364.364,0,0,1,.137.407l-1.055,3.333a.352.352,0,0,0,.051.322.36.36,0,0,0,.288.149.35.35,0,0,0,.2-.062l2.8-1.9a.35.35,0,0,1,.2-.061.347.347,0,0,1,.2.061l2.8,1.9a.35.35,0,0,0,.2.061.359.359,0,0,0,.287-.148.358.358,0,0,0,.052-.322l-1.132-3.578a.366.366,0,0,1,.136-.407l2.507-1.755a.356.356,0,0,0,.136-.406.35.35,0,0,0-.338-.25h-3.074a.355.355,0,0,1-.338-.249l-1.094-3.458a.349.349,0,0,0-.337-.25.349.349,0,0,0-.337.25l-1.094,3.458a.353.353,0,0,1-.337.249Z" transform="translate(647 743)"/>
  </g>
</svg>
