<svg width="241" height="181" viewBox="0 0 241 181" fill="none" xmlns="http://www.w3.org/2000/svg">
<g id="Frame 66">
<g id="Group 64">
<g id="Group 57">
<rect id="Rectangle 24" x="45.2319" y="142.3" width="86.433" height="7.87703" fill="#F4F8FE" stroke="#598BDA"/>
<path id="Rectangle 40" d="M119.501 142.3V135.874L118.048 133.19H100.194H89.5132H82.0164H74.5195H67.0227H60.9788L59.5259 135.874V142.3H119.501Z" fill="white" stroke="#598BDA"/>
<rect id="Rectangle 41" x="88.2993" y="127.501" width="12.4531" height="5.68835" fill="white" stroke="#598BDA"/>
<path id="Rectangle 38" d="M62.4318 122.479H116.595L119.501 127.501H59.5259L62.4318 122.479Z" fill="white" stroke="#598BDA"/>
<g id="Union">
<path fill-rule="evenodd" clip-rule="evenodd" d="M50.345 29.4355H63.0556L64.3256 30.8884H69.9544L72.1282 28.709H89.5525H106.977L109.151 30.8884H114.779L116.049 29.4355H128.76L130.213 32.5421V38.5547H120.048L117.147 37.1018H89.5525H61.9575L59.0572 38.5547H48.8921V32.5421L50.345 29.4355ZM50.0337 38.5548H59.5261V142.3H50.0337V38.5548ZM128.993 38.5548H119.5V142.3H128.993V38.5548Z" fill="#F4F8FE"/>
<path d="M63.0556 29.4355L63.4321 29.1064L63.2827 28.9355H63.0556V29.4355ZM50.345 29.4355V28.9355H50.0269L49.8921 29.2236L50.345 29.4355ZM64.3256 30.8884L63.9491 31.2175L64.0985 31.3884H64.3256V30.8884ZM69.9544 30.8884V31.3884H70.1618L70.3084 31.2415L69.9544 30.8884ZM72.1282 28.709V28.209H71.9207L71.7742 28.3559L72.1282 28.709ZM106.977 28.709L107.331 28.3559L107.184 28.209H106.977V28.709ZM109.151 30.8884L108.797 31.2415L108.943 31.3884H109.151V30.8884ZM114.779 30.8884V31.3884H115.007L115.156 31.2175L114.779 30.8884ZM116.049 29.4355V28.9355H115.822L115.673 29.1064L116.049 29.4355ZM128.76 29.4355L129.213 29.2236L129.078 28.9355H128.76V29.4355ZM130.213 32.5421H130.713V32.431L130.666 32.3303L130.213 32.5421ZM130.213 38.5547V39.0547H130.713V38.5547H130.213ZM120.048 38.5547L119.824 39.0018L119.93 39.0547H120.048V38.5547ZM117.147 37.1018L117.371 36.6547L117.266 36.6018H117.147V37.1018ZM61.9575 37.1018V36.6018H61.8393L61.7336 36.6547L61.9575 37.1018ZM59.0572 38.5547V39.0547H59.1754L59.2811 39.0018L59.0572 38.5547ZM48.8921 38.5547H48.3921V39.0547H48.8921V38.5547ZM48.8921 32.5421L48.4392 32.3303L48.3921 32.431V32.5421H48.8921ZM59.5261 38.5548H60.0261V38.0548H59.5261V38.5548ZM50.0337 38.5548V38.0548H49.5337V38.5548H50.0337ZM59.5261 142.3V142.8H60.0261V142.3H59.5261ZM50.0337 142.3H49.5337V142.8H50.0337V142.3ZM119.5 38.5548V38.0548H119V38.5548H119.5ZM128.993 38.5548H129.493V38.0548H128.993V38.5548ZM119.5 142.3H119V142.8H119.5V142.3ZM128.993 142.3V142.8H129.493V142.3H128.993ZM63.0556 28.9355H50.345V29.9355H63.0556V28.9355ZM64.702 30.5594L63.4321 29.1064L62.6791 29.7645L63.9491 31.2175L64.702 30.5594ZM69.9544 30.3884H64.3256V31.3884H69.9544V30.3884ZM71.7742 28.3559L69.6003 30.5353L70.3084 31.2415L72.4822 29.0621L71.7742 28.3559ZM89.5525 28.209H72.1282V29.209H89.5525V28.209ZM106.977 28.209H89.5525V29.209H106.977V28.209ZM109.505 30.5353L107.331 28.3559L106.623 29.0621L108.797 31.2415L109.505 30.5353ZM114.779 30.3884H109.151V31.3884H114.779V30.3884ZM115.673 29.1064L114.403 30.5594L115.156 31.2175L116.426 29.7645L115.673 29.1064ZM128.76 28.9355H116.049V29.9355H128.76V28.9355ZM130.666 32.3303L129.213 29.2236L128.307 29.6473L129.76 32.754L130.666 32.3303ZM130.713 38.5547V32.5421H129.713V38.5547H130.713ZM120.048 39.0547H130.213V38.0547H120.048V39.0547ZM116.924 37.5488L119.824 39.0018L120.272 38.1077L117.371 36.6547L116.924 37.5488ZM89.5525 37.6018H117.147V36.6018H89.5525V37.6018ZM61.9575 37.6018H89.5525V36.6018H61.9575V37.6018ZM59.2811 39.0018L62.1815 37.5488L61.7336 36.6547L58.8332 38.1077L59.2811 39.0018ZM48.8921 39.0547H59.0572V38.0547H48.8921V39.0547ZM48.3921 32.5421V38.5547H49.3921V32.5421H48.3921ZM49.8921 29.2236L48.4392 32.3303L49.345 32.754L50.798 29.6473L49.8921 29.2236ZM59.5261 38.0548H50.0337V39.0548H59.5261V38.0548ZM60.0261 142.3V38.5548H59.0261V142.3H60.0261ZM50.0337 142.8H59.5261V141.8H50.0337V142.8ZM49.5337 38.5548V142.3H50.5337V38.5548H49.5337ZM119.5 39.0548H128.993V38.0548H119.5V39.0548ZM120 142.3V38.5548H119V142.3H120ZM128.993 141.8H119.5V142.8H128.993V141.8ZM128.493 38.5548V142.3H129.493V38.5548H128.493Z" fill="#598BDA"/>
</g>
<rect id="Rectangle 33" x="119.5" y="123.589" width="24.5834" height="13.735" fill="white" stroke="#598BDA"/>
<path id="Rectangle 34" d="M128.257 77.5398H136.916L134.434 86.5981H123.692L128.257 77.5398Z" fill="white" stroke="#598BDA"/>
<path id="Rectangle 35" d="M128.257 100.333H136.916L134.434 91.2747H123.692L128.257 100.333Z" fill="white" stroke="#598BDA"/>
<path id="Rectangle 36" d="M50.7403 100.333H42.0811L44.5633 91.2747H55.3047L50.7403 100.333Z" fill="white" stroke="#598BDA"/>
<path id="Rectangle 37" d="M50.7403 77.5398H42.0811L44.5633 86.5981H55.3047L50.7403 77.5398Z" fill="white" stroke="#598BDA"/>
<rect id="Rectangle 28" x="35.1016" y="86.598" width="108.982" height="4.6767" fill="white" stroke="#598BDA"/>
<rect id="Rectangle 25" x="48.1353" y="150.177" width="4.57489" height="3.35002" fill="white" stroke="#598BDA"/>
<rect id="Rectangle 26" x="124.247" y="150.177" width="4.57489" height="3.35002" fill="white" stroke="#598BDA"/>
<path id="Rectangle 27" d="M87.8848 150.177H110.85L109.397 153.527H89.3377L87.8848 150.177Z" fill="white" stroke="#598BDA"/>
<path id="Vector 7 (Stroke)" fill-rule="evenodd" clip-rule="evenodd" d="M60.6431 65.6864C59.5909 66.9452 58.5119 68.2362 57.4178 69.433C55.9064 71.0863 53.9212 72.6986 51.8916 74.2389C50.9465 74.9562 50.0266 75.633 49.1182 76.3013C47.9777 77.1404 46.8554 77.9661 45.7245 78.8416C43.7513 80.3691 42.0631 81.8191 40.878 83.2137C39.6708 84.6344 39.2031 85.7455 39.2031 86.6136H35.2031C35.2031 84.3414 36.387 82.3216 37.8299 80.6236C39.2948 78.8996 41.2552 77.2429 43.2759 75.6786C44.392 74.8146 45.6288 73.9034 46.8376 73.0128C47.754 72.3376 48.6542 71.6744 49.4734 71.0526C51.4754 69.5333 53.214 68.1032 54.4655 66.7341C55.4937 65.6093 56.4945 64.4122 57.5352 63.1673C57.8558 62.7836 58.1803 62.3954 58.5106 62.0035C59.8894 60.3669 61.3468 58.6913 62.9188 57.1954C66.0644 54.2022 69.8676 51.7384 74.7932 51.7384C78.7625 51.7384 82.9472 52.8737 86.1238 56.1948C89.2908 59.506 91.1617 64.6838 91.1617 72.1548H87.1617C87.1617 65.3075 85.4497 61.277 83.2331 58.9596C81.0261 56.6521 78.0266 55.7384 74.7932 55.7384C71.3399 55.7384 68.4803 57.4249 65.6762 60.0931C64.2734 61.428 62.9343 62.9609 61.5696 64.5807C61.2633 64.9443 60.9544 65.3139 60.6431 65.6864Z" fill="white" stroke="#598BDA"/>
<g id="Group 58">
<path id="Rectangle 39" d="M80.9536 134.661L84.4189 132.482H87.8841H91.3493L94.8146 134.661V134.936V137.391V140.12L90.4557 142.3H87.8841H85.3125L80.9536 140.12V137.391V134.936V134.661Z" fill="#F4F8FE" stroke="#598BDA"/>
<path id="Polygon 1" d="M87.8843 134.254L90.6011 135.823V138.96L87.8843 140.528L85.1674 138.96V135.823L87.8843 134.254Z" fill="white" stroke="#598BDA"/>
</g>
<g id="Group 59">
<path id="Rectangle 31" d="M79.9854 73.4121L89.1742 71.2327L98.363 73.4121V85.6629V97.9137L89.1742 100.093L79.9854 97.9137V85.6629V73.4121Z" fill="#F4F8FE" stroke="#598BDA"/>
<circle id="Ellipse 1" cx="89.1747" cy="85.6627" r="5.12294" fill="white" stroke="#598BDA"/>
</g>
</g>
<g id="Group 16">
<path id="Rectangle 5" d="M126.835 104.597C126.835 101.962 128.972 99.8252 131.608 99.8252H193.487C196.122 99.8252 198.259 101.962 198.259 104.597V147.649H126.835V104.597Z" fill="#F4F8FE" stroke="#598BDA"/>
<path id="Rectangle 6" d="M129.514 105.286C129.514 103.529 130.939 102.105 132.696 102.105H192.398C194.155 102.105 195.579 103.529 195.579 105.286V147.649H129.514V105.286Z" fill="white" stroke="#598BDA"/>
<path id="Rectangle 7" d="M119.195 149.345C119.195 151.102 120.619 152.527 122.376 152.527H202.717C204.474 152.527 205.899 151.102 205.899 149.345V147.649H119.195V149.345Z" fill="white" stroke="#598BDA"/>
<path id="Rectangle 8" d="M154.987 148.444C154.987 148.005 155.343 147.649 155.782 147.649H169.311C169.75 147.649 170.107 148.005 170.107 148.444V148.444H154.987V148.444Z" fill="white" stroke="#598BDA" stroke-width="0.795355"/>
<g id="Frame 58">
<g id="Group 18">
<rect id="Rectangle 9" x="141.66" y="119.789" width="8.5167" height="12.775" fill="#F4F8FE"/>
<path id="Clear all" d="M145.918 123.532C147.318 123.532 147.752 124.696 147.752 126.177C147.752 127.65 147.318 128.821 145.918 128.821C144.519 128.821 144.084 127.65 144.084 126.177C144.084 124.696 144.519 123.532 145.918 123.532ZM145.918 128.32C146.728 128.32 147.045 127.502 147.045 126.177C147.045 124.843 146.728 124.033 145.918 124.033C145.108 124.033 144.791 124.843 144.791 126.177C144.791 127.502 145.108 128.32 145.918 128.32Z" fill="#3986FF"/>
</g>
<g id="Group 19">
<rect id="Rectangle 9_2" x="152.745" y="119.789" width="8.5167" height="12.775" fill="#F4F8FE"/>
<path id="Clear all_2" d="M157.053 123.532C158.452 123.532 158.887 124.696 158.887 126.177C158.887 127.65 158.452 128.821 157.053 128.821C155.653 128.821 155.219 127.65 155.219 126.177C155.219 124.696 155.653 123.532 157.053 123.532ZM157.053 128.32C157.863 128.32 158.18 127.503 158.18 126.177C158.18 124.844 157.863 124.033 157.053 124.033C156.243 124.033 155.926 124.844 155.926 126.177C155.926 127.503 156.243 128.32 157.053 128.32Z" fill="#3986FF"/>
</g>
<g id="Group 20">
<rect id="Rectangle 9_3" x="163.831" y="119.788" width="8.5167" height="12.775" fill="#F4F8FE"/>
<path id="Clear all_3" d="M168.188 123.532C169.587 123.532 170.022 124.696 170.022 126.176C170.022 127.65 169.587 128.821 168.188 128.821C166.788 128.821 166.354 127.65 166.354 126.176C166.354 124.696 166.788 123.532 168.188 123.532ZM168.188 128.32C168.998 128.32 169.315 127.502 169.315 126.176C169.315 124.843 168.998 124.033 168.188 124.033C167.377 124.033 167.061 124.843 167.061 126.176C167.061 127.502 167.377 128.32 168.188 128.32Z" fill="#3986FF"/>
</g>
<g id="Group 21">
<rect id="Rectangle 9_4" x="174.917" y="119.789" width="8.5167" height="12.775" fill="#F4F8FE"/>
<path id="Clear all_4" d="M179.323 123.532C180.722 123.532 181.157 124.696 181.157 126.176C181.157 127.65 180.722 128.821 179.323 128.821C177.923 128.821 177.489 127.65 177.489 126.176C177.489 124.696 177.923 123.532 179.323 123.532ZM179.323 128.32C180.133 128.32 180.45 127.502 180.45 126.176C180.45 124.843 180.133 124.033 179.323 124.033C178.513 124.033 178.196 124.843 178.196 126.176C178.196 127.502 178.513 128.32 179.323 128.32Z" fill="#3986FF"/>
</g>
</g>
</g>
</g>
</g>
</svg>
