<svg xmlns="http://www.w3.org/2000/svg" xmlns:xlink="http://www.w3.org/1999/xlink" width="36" height="36" viewBox="0 0 36 36">
  <defs>
    <clipPath id="clip-icon-speed-click">
      <rect width="36" height="36"/>
    </clipPath>
  </defs>
  <g id="icon-speed-click" clip-path="url(#clip-icon-speed-click)">
    <path id="路径_1642" data-name="路径 1642" d="M-123,29a8,8,0,0,0-8,8,8,8,0,0,0,8,8,8,8,0,0,0,8-8v0A8.009,8.009,0,0,0-123,29Zm.629,7.934v-1.4a.626.626,0,0,0-.43-.59.461.461,0,0,0-.2-.048.464.464,0,0,0-.2.048.626.626,0,0,0-.429.59v1.4h-5.49a6.081,6.081,0,0,1,1.426-3.9l.807.806a.628.628,0,0,0,.445.185.624.624,0,0,0,.445-.185.63.63,0,0,0,.021-.87l-.821-.821a6.079,6.079,0,0,1,3.162-1.282v1.343a.63.63,0,0,0,.629.63.631.631,0,0,0,.63-.63V30.942l0-.011,0-.011v-.057a6.072,6.072,0,0,1,3.129,1.26l-.8.8a.629.629,0,0,0-.184.446.624.624,0,0,0,.184.446A.626.626,0,0,0-119.6,34a.62.62,0,0,0,.445-.185l.821-.816a6.078,6.078,0,0,1,1.45,3.933Z" transform="translate(141 -19)" fill="#1d69e0"/>
  </g>
</svg>
