<svg xmlns="http://www.w3.org/2000/svg" xmlns:xlink="http://www.w3.org/1999/xlink" width="36" height="36" viewBox="0 0 36 36">
  <defs>
    <clipPath id="clip-icon-normal-sel">
      <rect width="36" height="36"/>
    </clipPath>
  </defs>
  <g id="icon-normal-sel" clip-path="url(#clip-icon-normal-sel)">
    <g id="组_1948" data-name="组 1948" transform="translate(-296 -84)">
      <path id="路径_1615" data-name="路径 1615" d="M323.081,93h-6.162a.92.92,0,0,0-.919.919v6.162a.92.92,0,0,0,.919.919h6.162a.92.92,0,0,0,.919-.919V93.919a.92.92,0,0,0-.919-.919Z" fill="#fff"/>
      <path id="路径_1616" data-name="路径 1616" d="M323.081,103h-6.162a.92.92,0,0,0-.919.919v6.162a.92.92,0,0,0,.919.919h6.162a.92.92,0,0,0,.919-.919v-6.162a.92.92,0,0,0-.919-.919Z" fill="#fff"/>
      <path id="路径_1617" data-name="路径 1617" d="M311.966,93h-6.932a.989.989,0,0,0-1.034.937v16.126a.989.989,0,0,0,1.034.937h6.932a.989.989,0,0,0,1.034-.937V93.937A.989.989,0,0,0,311.966,93Zm-.972,15.9a.115.115,0,0,1-.122.1h-4.75a.115.115,0,0,1-.122-.1V107.1a.115.115,0,0,1,.122-.1h4.756a.115.115,0,0,1,.122.1Zm0-4a.115.115,0,0,1-.122.1h-4.75a.115.115,0,0,1-.122-.1V103.1a.115.115,0,0,1,.122-.1h4.756a.115.115,0,0,1,.122.1Zm0-4a.115.115,0,0,1-.122.1h-4.75a.115.115,0,0,1-.122-.1V99.1a.115.115,0,0,1,.122-.1h4.756a.115.115,0,0,1,.122.1Z" fill="#fff"/>
    </g>
  </g>
</svg>
