<svg xmlns="http://www.w3.org/2000/svg" width="40" height="40" viewBox="0 0 40 40">
  <g id="icon-seam_painting" data-name="icon-seam painting" transform="translate(-20 -292)">
    <g id="左侧边栏-icon-bg" transform="translate(20 292)">
      <rect id="左侧边栏-icon-bg-2" data-name="左侧边栏-icon-bg" width="40" height="40" rx="8" fill="none"/>
    </g>
    <g id="组_2066" data-name="组 2066" transform="translate(20 292)">
      <path id="路径_1720" data-name="路径 1720" d="M28.729,15.669a.476.476,0,0,0,.224-.648.508.508,0,0,0-.671-.215l-7.04,3.39a2.869,2.869,0,0,1-2.484,0l-7.144-3.44a.508.508,0,0,0-.67.216.474.474,0,0,0,.224.647l6.793,3.272a2.674,2.674,0,0,1,1.539,2.4v9.227a.5.5,0,0,0,1,0V21.291a2.674,2.674,0,0,1,1.539-2.4Z" fill="#3986ff"/>
      <path id="路径_1721" data-name="路径 1721" d="M19.221,17.017a1.8,1.8,0,0,0,1.558,0L27.7,13.683a1.844,1.844,0,0,1,.587-.158L20.9,9.241a1.8,1.8,0,0,0-1.8,0l-7.334,4.252a1.884,1.884,0,0,1,.43.141Z" fill="#3986ff"/>
      <path id="路径_1722" data-name="路径 1722" d="M18.2,21.449a1.678,1.678,0,0,0-.966-1.506l-6.647-3.2A1.777,1.777,0,0,1,10,16.284v8.843a1.673,1.673,0,0,0,.846,1.444l7.389,4.283a1.694,1.694,0,0,1-.035-.336Z" fill="#3986ff"/>
      <path id="路径_1723" data-name="路径 1723" d="M29.308,16.792l-6.542,3.15a1.679,1.679,0,0,0-.966,1.507v9.069a1.694,1.694,0,0,1-.035.336l7.389-4.283A1.673,1.673,0,0,0,30,25.127V16.193A1.76,1.76,0,0,1,29.308,16.792Z" fill="#3986ff"/>
    </g>
  </g>
</svg>
