<svg xmlns="http://www.w3.org/2000/svg" xmlns:xlink="http://www.w3.org/1999/xlink" width="36" height="36" viewBox="0 0 36 36">
  <defs>
    <clipPath id="clip-icon-H-quality-sel">
      <rect width="36" height="36"/>
    </clipPath>
  </defs>
  <g id="icon-H-quality-sel" clip-path="url(#clip-icon-H-quality-sel)">
    <g id="组_1796" data-name="组 1796" transform="translate(-1634 -477)">
      <rect id="矩形_384" data-name="矩形 384" width="36" height="36" transform="translate(1634 477)" fill="none" opacity="0.542"/>
      <path id="路径_1614" data-name="路径 1614" d="M300.722,98.171l-2.357-4.09a2.184,2.184,0,0,0-1.9-1.081H283.531a2.184,2.184,0,0,0-1.9,1.081l-2.357,4.09a2.075,2.075,0,0,0,.2,2.365l8.825,10.675a2.213,2.213,0,0,0,3.388,0l8.825-10.675A2.075,2.075,0,0,0,300.722,98.171Zm-5.8,3.419H291.4l1.6,1.6a.582.582,0,0,1-.411.993h0a.582.582,0,0,1-.411-.171l-1.6-1.6v3.514a.582.582,0,0,1-.582.583h0a.582.582,0,0,1-.582-.583h0v-3.515l-1.6,1.6a.581.581,0,0,1-.411.17h0a.582.582,0,0,1-.411-.993l1.6-1.6h-3.514a.582.582,0,0,1,0-1.164H288.6l-1.605-1.6a.582.582,0,0,1,.824-.822l1.6,1.6V96.091a.582.582,0,0,1,1.164,0V99.6l1.6-1.6a.582.582,0,0,1,.823.822l-1.6,1.6h3.516a.582.582,0,0,1,0,1.164Z" transform="translate(1362 393)" fill="#fff"/>
    </g>
  </g>
</svg>
