<svg xmlns="http://www.w3.org/2000/svg" xmlns:xlink="http://www.w3.org/1999/xlink" width="28" height="28" viewBox="0 0 28 28">
  <defs>
    <clipPath id="clip-icon_服务">
      <rect width="28" height="28"/>
    </clipPath>
  </defs>
  <g id="icon_服务" clip-path="url(#clip-icon_服务)">
    <g id="icon-服务" transform="translate(0 0.049)">
      <rect id="占位" width="28" height="28" fill="none" opacity="0.54"/>
      <g id="组_2209" data-name="组 2209" transform="translate(1052.575 48.583)">
        <path id="路径_1907" data-name="路径 1907" d="M-1034.195-42.44h-8.76a1.875,1.875,0,0,0-1.869,1.87v11.976a1.875,1.875,0,0,0,1.87,1.865h6.533l.012,0a.5.5,0,0,0,.353-.147l3.583-3.583a.5.5,0,0,0,.109-.544.5.5,0,0,0-.462-.309h-3.583a.5.5,0,0,0-.5.5v3.081h-6.045a.873.873,0,0,1-.87-.867V-40.57a.873.873,0,0,1,.87-.87h8.759a.872.872,0,0,1,.869.87v1.706a.5.5,0,0,0,.5.5.5.5,0,0,0,.5-.5V-40.57A1.872,1.872,0,0,0-1034.195-42.44Zm-1.714,12.13h1.876l-1.876,1.876Z" fill="#7f7f7f"/>
        <path id="路径_1908" data-name="路径 1908" d="M-1039.773-37.7a.5.5,0,0,0-.707,0l-2.1,2.1a.5.5,0,0,0-.147.353.5.5,0,0,0,.147.354l2.212,2.211a.5.5,0,0,0,.354.147.5.5,0,0,0,.353-.147.5.5,0,0,0,0-.707l-1.858-1.858,1.745-1.744A.5.5,0,0,0-1039.773-37.7Z" fill="#7f7f7f"/>
        <path id="路径_1909" data-name="路径 1909" d="M-1035.393-32.682a.5.5,0,0,0,.353.147.5.5,0,0,0,.354-.147l2.213-2.211a.5.5,0,0,0,.147-.354.5.5,0,0,0-.147-.353l-2.1-2.1a.5.5,0,0,0-.707,0,.5.5,0,0,0,0,.707l1.744,1.744-1.86,1.858A.5.5,0,0,0-1035.393-32.682Z" fill="#7f7f7f"/>
        <path id="路径_1910" data-name="路径 1910" d="M-1037.311-38.049l-1.121,5.4a.5.5,0,0,0,.389.592.5.5,0,0,0,.1.01.5.5,0,0,0,.489-.4l1.121-5.4a.5.5,0,0,0-.388-.592A.5.5,0,0,0-1037.311-38.049Z" fill="#7f7f7f"/>
      </g>
    </g>
  </g>
</svg>
