<svg xmlns="http://www.w3.org/2000/svg" xmlns:xlink="http://www.w3.org/1999/xlink" width="28" height="28" viewBox="0 0 28 28">
  <defs>
    <clipPath id="clip-Icon_密码不可见_normal">
      <rect width="28" height="28"/>
    </clipPath>
  </defs>
  <g id="Icon_密码不可见_normal" clip-path="url(#clip-Icon_密码不可见_normal)">
    <path id="路径_1904" data-name="路径 1904" d="M-1038.721,1.275c-4.633,0-8.277-4.593-8.43-4.788a.55.55,0,0,1,0-.678c.153-.2,3.8-4.789,8.43-4.789s8.276,4.593,8.429,4.789a.55.55,0,0,1,0,.678C-1030.445-3.318-1034.089,1.275-1038.721,1.275Zm-7.254-5.127c.91,1.025,3.857,4.019,7.254,4.019s6.344-2.994,7.253-4.019c-.909-1.026-3.857-4.019-7.253-4.019S-1045.065-4.878-1045.975-3.852Z" transform="translate(1052.722 18.422)" fill="#7f7f7f"/>
    <line id="直线_184" data-name="直线 184" x2="11.395" y2="11.395" transform="translate(8.873 8.302)" fill="none" stroke="#7f7f7f" stroke-linecap="round" stroke-linejoin="round" stroke-width="1.3"/>
    <path id="路径_1905" data-name="路径 1905" d="M-1039.211-5.482a1.7,1.7,0,0,0-1.22,1.63,1.71,1.71,0,0,0,1.71,1.709,1.7,1.7,0,0,0,1.629-1.22Z" transform="translate(1052.722 18.422)" fill="#7f7f7f"/>
  </g>
</svg>
