<svg xmlns="http://www.w3.org/2000/svg" xmlns:xlink="http://www.w3.org/1999/xlink" width="36" height="36" viewBox="0 0 36 36">
  <defs>
    <clipPath id="clip-icon-cooling-nor">
      <rect width="36" height="36"/>
    </clipPath>
  </defs>
  <g id="icon-cooling-nor" clip-path="url(#clip-icon-cooling-nor)">
    <path id="路径_1592" data-name="路径 1592" d="M-48.38,36.358a2.184,2.184,0,0,0-2.633.127,2.342,2.342,0,0,0-.952,2.312,5.877,5.877,0,0,0,.889,2.347,4.207,4.207,0,0,0,1.65,1.623,3.434,3.434,0,0,0,4.5-.761,5.674,5.674,0,0,0,1.014-1.588,5.4,5.4,0,0,0,.54-1.967c0-.317.159-.476.412-.476a.587.587,0,0,1,.54.349,3.656,3.656,0,0,1-.222,3.108,2.228,2.228,0,0,0,.1,2.6,2.263,2.263,0,0,0,2.313.92,5.894,5.894,0,0,0,2.348-.888,4.221,4.221,0,0,0,1.619-1.649,3.357,3.357,0,0,0-.794-4.472A5.751,5.751,0,0,0-38.64,36.9a5.4,5.4,0,0,0-1.968-.539c-.317,0-.476-.159-.476-.412a.482.482,0,0,1,.386-.508,4.02,4.02,0,0,1,1.364-.254,3.631,3.631,0,0,1,1.714.445,2.233,2.233,0,0,0,2.633-.1,2.341,2.341,0,0,0,.952-2.312,5.883,5.883,0,0,0-.889-2.347,4.212,4.212,0,0,0-1.65-1.617,3.434,3.434,0,0,0-4.5.761A6.158,6.158,0,0,0-42.094,31.6a5.586,5.586,0,0,0-.54,1.966.437.437,0,0,1-.394.475h-.018a.515.515,0,0,1-.54-.349,4.013,4.013,0,0,1-.222-1.4,3.616,3.616,0,0,1,.445-1.713,2.228,2.228,0,0,0-.1-2.6,2.293,2.293,0,0,0-2.284-.952,5.9,5.9,0,0,0-2.348.888,4.547,4.547,0,0,0-1.651,1.646,3.4,3.4,0,0,0,.793,4.5,6.26,6.26,0,0,0,1.586,1.046,5.316,5.316,0,0,0,1.968.508c.317,0,.476.159.476.412a.542.542,0,0,1-.386.54,3.6,3.6,0,0,1-3.077-.222m6.06-1.014a.811.811,0,0,1,.253.633,1.023,1.023,0,0,1-.253.666.949.949,0,0,1-.635.254,1.023,1.023,0,0,1-.666-.254.962.962,0,0,1,0-1.3.911.911,0,0,1,.666-.289.984.984,0,0,1,.639.291Z" transform="translate(61 -18)" fill="#3c4f73"/>
  </g>
</svg>
