<svg width="24" height="24" viewBox="0 0 24 24" fill="none" xmlns="http://www.w3.org/2000/svg">
<path d="M24 0H7.84399C5.74941 0.040852 3.75444 0.901697 2.28772 2.39758C0.821004 3.89347 -0.0003982 5.90502 1.44817e-07 8V24L24 0Z" fill="#1d69e0"/>
<path fill-rule="evenodd" clip-rule="evenodd" d="M12.6728 4.75718C13.0809 5.12931 13.1101 5.7618 12.7379 6.16989L9.09048 10.1699C8.90897 10.369 8.65481 10.4864 8.38557 10.4955C8.11634 10.5047 7.85479 10.4048 7.66016 10.2186L4.94336 7.61859C4.54436 7.23674 4.53045 6.60373 4.9123 6.20472C5.29415 5.80571 5.92716 5.7918 6.32617 6.17366L8.30288 8.06536L11.2601 4.82231C11.6322 4.41421 12.2647 4.38506 12.6728 4.75718Z" fill="white"/>
</svg>
