<svg xmlns="http://www.w3.org/2000/svg" xmlns:xlink="http://www.w3.org/1999/xlink" width="28" height="28" viewBox="0 0 28 28">
  <defs>
    <clipPath id="clip-icon_密码可见_normal">
      <rect width="28" height="28"/>
    </clipPath>
  </defs>
  <g id="icon_密码可见_normal" clip-path="url(#clip-icon_密码可见_normal)">
    <path id="路径_1906" data-name="路径 1906" d="M-1064.931.706c-4.633,0-8.276-4.594-8.429-4.789a.55.55,0,0,1,0-.678c.153-.2,3.8-4.789,8.429-4.789s8.277,4.593,8.43,4.789a.55.55,0,0,1,0,.678C-1056.654-3.888-1060.3.706-1064.931.706Zm-7.253-5.128c.909,1.025,3.857,4.019,7.253,4.019s6.344-2.994,7.254-4.019c-.91-1.026-3.857-4.019-7.254-4.019S-1071.275-5.448-1072.184-4.422Z" transform="translate(1078.931 18.422)" fill="#7f7f7f"/>
    <circle id="椭圆_131" data-name="椭圆 131" cx="1.709" cy="1.709" r="1.709" transform="translate(12.291 12.29)" fill="#7f7f7f"/>
  </g>
</svg>
