<svg xmlns="http://www.w3.org/2000/svg" xmlns:xlink="http://www.w3.org/1999/xlink" width="34" height="34" viewBox="0 0 34 34">
  <defs>
    <clipPath id="clip-icon-setting-disable">
      <rect width="34" height="34"/>
    </clipPath>
  </defs>
  <g id="icon-setting-disable" clip-path="url(#clip-icon-setting-disable)">
    <g id="打印设置-icon-bg">
      <rect id="打印设置-icon-bg-2" data-name="打印设置-icon-bg" width="34" height="34" rx="8" fill="#f4f4f4"/>
    </g>
    <path id="路径_1589" data-name="路径 1589" d="M194,17.286V14.715a.429.429,0,0,0-.428-.429h-1.01a1.271,1.271,0,0,1-1.187-.8c-.03-.076-.061-.151-.093-.226a1.271,1.271,0,0,1,.276-1.4l.626-.626c.258-.258.256-.527.088-.7l-1.818-1.82a.428.428,0,0,0-.605,0l-.714.714a1.27,1.27,0,0,1-1.4.277c-.074-.032-.15-.063-.226-.093a1.271,1.271,0,0,1-.795-1.186V7.553c0-.364-.192-.553-.429-.553h-2.567a.429.429,0,0,0-.429.429h0V8.438a1.271,1.271,0,0,1-.795,1.188c-.076.03-.152.061-.226.093a1.27,1.27,0,0,1-1.4-.277l-.714-.714a.428.428,0,0,0-.6,0l-1.817,1.819a.428.428,0,0,0,0,.605l.714.715a1.27,1.27,0,0,1,.277,1.4c-.032.074-.063.149-.093.226a1.271,1.271,0,0,1-1.187.795h-1.009a.429.429,0,0,0-.429.427v2.572a.429.429,0,0,0,.429.428h1.009a1.271,1.271,0,0,1,1.187.8c.03.077.061.152.093.226a1.269,1.269,0,0,1-.277,1.4l-.714.715a.428.428,0,0,0,0,.6l1.818,1.818a.428.428,0,0,0,.6,0l.714-.714a1.27,1.27,0,0,1,1.4-.279c.074.032.15.063.226.093a1.271,1.271,0,0,1,.795,1.186v.885c0,.364.192.553.429.553h2.571a.429.429,0,0,0,.429-.429h0V23.562a1.272,1.272,0,0,1,.795-1.188c.076-.03.152-.061.226-.093a1.27,1.27,0,0,1,1.4.277l.714.716a.428.428,0,0,0,.6,0l1.818-1.818a.428.428,0,0,0,0-.6l-.714-.715a1.27,1.27,0,0,1-.277-1.4c.032-.074.063-.149.093-.226a1.271,1.271,0,0,1,1.187-.8h1.008a.43.43,0,0,0,.43-.428h0Zm-9,1.286A2.572,2.572,0,1,1,187.57,16h0A2.572,2.572,0,0,1,185,18.572Z" transform="translate(-168 1)" fill="#a8a8a8"/>
  </g>
</svg>
