<?xml version="1.0" encoding="utf-8"?>
<svg version="1.1" xmlns:xlink="http://www.w3.org/1999/xlink" width="43px" height="42px" xmlns="http://www.w3.org/2000/svg">
  <g transform="matrix(1 0 0 1 -1610 -597 )">
    <path d="M 41.12342995689655 38.852109375  L 23.69383405172414 21.207046875  L 41.12342995689655 3.5601562499999995  C 41.4622780321087 3.2173680808900422  41.65264089857594 2.752447552776344  41.65264089857594 2.2676718750000004  C 41.65264089857594 1.2581787847070869  40.84369144557691 0.43982294271968364  39.84580172413793 0.43982294271968364  C 39.36659818058891 0.43982294271968364  38.907021566591446 0.6323993308900415  38.568173491379305 0.9751874999999989  L 21.14038469827586 18.622078124999998  L 3.710788793103443 0.9733593749999994  C 3.3719407178913 0.6305712058900421  2.912364103893853 0.43799481771968685  2.433160560344822 0.43799481771968685  C 1.4352708389058473 0.43799481771968685  0.6263213859068117 1.2563506597070848  0.6263213859068117 2.2658437499999997  C 0.6263213859068117 2.7506194277763445  0.8166842523740595 3.2155399558900415  1.1555323275862024 3.5583281249999987  L 18.585128232758613 21.20521875  L 1.1555323275862024 38.852109375000005  C 0.8166842523740621 39.19489754410996  0.6263213859068104 39.659818072223665  0.6263213859068104 40.144593750000006  C 0.6263213859068104 41.15408684029293  1.4352708389058473 41.97244268228032  2.433160560344822 41.97244268228032  C 2.9123641038938484 41.97244268228032  3.3719407178913046 41.779866294109965  3.710788793103443 41.437078125  L 21.14038469827586 23.790187500000002  L 38.56817349137931 41.437078125  C 38.907021566591446 41.77986629410996  39.36659818058891 41.97244268228032  39.84580172413793 41.97244268228032  C 40.84369144557691 41.97244268228032  41.65264089857594 41.15408684029292  41.65264089857594 40.14459375  C 41.65264089857594 39.65981807222365  41.4622780321087 39.19489754410995  41.12342995689655 38.852109375  Z " fill-rule="nonzero" fill="#ff6c6c" stroke="none" transform="matrix(1 0 0 1 1610 597 )" />
  </g>
</svg>