<?xml version="1.0" standalone="no"?><!DOCTYPE svg PUBLIC "-//W3C//DTD SVG 1.1//EN" "http://www.w3.org/Graphics/SVG/1.1/DTD/svg11.dtd"><svg t="1691461903472" class="icon" viewBox="0 0 1024 1024" version="1.1" xmlns="http://www.w3.org/2000/svg" p-id="5307" xmlns:xlink="http://www.w3.org/1999/xlink" width="200" height="200"><path d="M779.264 448h62.784c17.664 0 32.64 14.976 32.64 32.64v62.72c0 17.664-14.976 32.64-32.64 32.64h-62.72a33.088 33.088 0 0 1-32.64-32.64v-62.72c0-17.664 14.912-32.64 32.64-32.64z m-501.952 32.64v62.72c0 17.664-14.912 32.64-32.64 32.64h-62.72a33.088 33.088 0 0 1-32.64-32.64v-62.72c0-17.664 14.976-32.64 32.64-32.64h62.72c17.728 0 32.64 14.976 32.64 32.64zM576 480.64v62.72c0 17.664-14.976 32.64-32.64 32.64h-62.72A33.088 33.088 0 0 1 448 543.36v-62.72c0-17.664 14.912-32.64 32.64-32.64h62.72c17.664 0 32.64 14.976 32.64 32.64z" fill="#3986ff" p-id="5308"></path></svg>