<svg xmlns="http://www.w3.org/2000/svg" xmlns:xlink="http://www.w3.org/1999/xlink" width="36" height="36" viewBox="0 0 36 36">
  <defs>
    <clipPath id="clip-icon-detail-nor">
      <rect width="36" height="36"/>
    </clipPath>
  </defs>
  <g id="icon-detail-nor" class="cls-1">
    <path id="路径_1775" data-name="路径 1775" class="cls-2" fill="#4cdbc5" d="M-1962.588-1021.475l9.175-5.1a.852.852,0,0,1,.825,0l9.175,5.1a.789.789,0,0,1,.412.688v10.206a.79.79,0,0,1-.412.688l-9.175,5.1a.852.852,0,0,1-.825,0l-9.175-5.1a.79.79,0,0,1-.412-.688v-10.206a.789.789,0,0,1,.412-.688Z" transform="translate(1971 1033.685)"/>
    <path id="路径_1774" data-name="路径 1774" class="cls-3" fill="#fff" d="M-257.7-191.163h-3.075a.355.355,0,0,1-.337-.249l-1.094-3.458a.352.352,0,0,0-.674,0l-1.094,3.458a.355.355,0,0,1-.337.249h-3.5a.361.361,0,0,0-.2.656l2.856,2a.363.363,0,0,1,.136.406l-1.055,3.333a.356.356,0,0,0,.534.41l2.8-1.9a.349.349,0,0,1,.393,0l2.8,1.9a.356.356,0,0,0,.534-.41l-1.132-3.577a.362.362,0,0,1,.136-.406l2.506-1.756A.361.361,0,0,0-257.7-191.163Z" transform="translate(280.756 206.708)"/>
  </g>
</svg>
