<svg xmlns="http://www.w3.org/2000/svg" xmlns:xlink="http://www.w3.org/1999/xlink" width="28" height="28" viewBox="0 0 28 28">
  <defs>
    <clipPath id="clip-icon-Feature_type">
      <rect width="28" height="28"/>
    </clipPath>
  </defs>
  <g id="icon-Feature_type" data-name="icon-Feature type" clip-path="url(#clip-icon-Feature_type)">
    <path id="路径_1562" data-name="路径 1562" d="M159-49a9,9,0,0,0-9,9h0a9,9,0,0,0,9,9h0c3.168,0-1.943-3.6,3.6-3.6a5.31,5.31,0,0,0,5.4-5.218V-40a9,9,0,0,0-9-9Zm-5.85,8.55a1.349,1.349,0,0,1-1.35-1.35h0a1.349,1.349,0,0,1,1.35-1.35h0a1.349,1.349,0,0,1,1.35,1.35h0a1.349,1.349,0,0,1-1.35,1.35Zm3.15-3.15a1.351,1.351,0,0,1-1.35-1.349,1.35,1.35,0,0,1,1.35-1.35h0a1.35,1.35,0,0,1,1.35,1.35h0a1.349,1.349,0,0,1-1.35,1.35h0Zm5.4,0a1.351,1.351,0,0,1-1.35-1.349,1.35,1.35,0,0,1,1.35-1.35h0a1.35,1.35,0,0,1,1.35,1.35h0A1.351,1.351,0,0,1,161.7-43.6Zm3.15,3.15a1.349,1.349,0,0,1-1.35-1.35h0a1.349,1.349,0,0,1,1.35-1.35h0a1.349,1.349,0,0,1,1.35,1.35h0a1.349,1.349,0,0,1-1.35,1.35Z" transform="translate(-145 54)" fill="#8e99ad"/>
  </g>
</svg>
