<?xml version="1.0" standalone="no"?><!DOCTYPE svg PUBLIC "-//W3C//DTD SVG 1.1//EN" "http://www.w3.org/Graphics/SVG/1.1/DTD/svg11.dtd"><svg t="1689746411549" class="icon" viewBox="0 0 1024 1024" version="1.1" xmlns="http://www.w3.org/2000/svg" p-id="30338" width="32" height="32" xmlns:xlink="http://www.w3.org/1999/xlink"><path d="M265.376 726.272a31.712 31.712 0 1 1 44.864-44.896L512 883.32799999l201.82400001-201.95199999a31.68 31.68 0 0 1 44.928-0.064 31.936 31.936 0 0 1-0.06400001 44.96l-224.192 224.352 0 0.032a31.552 31.552 0 0 1-44.896 0l-0.064 0z m0-428.544l224.192-224.35200001 0-0.03199999 0.032 0a31.552 31.552 0 0 1 44.864 0l0.064 0 224.192 224.384a31.936 31.936 0 0 1 0.064 44.96 31.68 31.68 0 0 1-44.928-0.064l-201.824-201.952-201.792 201.952a31.712 31.712 0 1 1-44.864-44.896z" p-id="30339" fill="#8a8a8a"></path></svg>