<?xml version="1.0" standalone="no"?><!DOCTYPE svg PUBLIC "-//W3C//DTD SVG 1.1//EN" "http://www.w3.org/Graphics/SVG/1.1/DTD/svg11.dtd"><svg t="1691982854733" class="icon" viewBox="0 0 1024 1024" version="1.1" xmlns="http://www.w3.org/2000/svg" p-id="35470" xmlns:xlink="http://www.w3.org/1999/xlink" width="200" height="200"><path d="M512 512m-486.4 0a486.4 486.4 0 1 0 972.8 0 486.4 486.4 0 1 0-972.8 0Z" fill="#ffffff" p-id="35471" data-spm-anchor-id="a313x.search_index.0.i8.7b733a81KgQN3c" class="selected"></path><path d="M626.261333 553.813333a186.88 186.88 0 0 1-228.522666 0C318.549333 593.066667 264.533333 669.952 264.533333 748.458667h494.933334c0-78.506667-54.016-155.392-133.205334-194.645334z" fill="#f2c422" p-id="35472" data-spm-anchor-id="a313x.search_index.0.i5.7b733a81KgQN3c" class="selected"></path><path d="M512 410.709333m-135.082667 0a135.082667 135.082667 0 1 0 270.165334 0 135.082667 135.082667 0 1 0-270.165334 0Z" fill="#f2c422" p-id="35473" data-spm-anchor-id="a313x.search_index.0.i4.7b733a81KgQN3c" class="selected"></path></svg>