<svg xmlns="http://www.w3.org/2000/svg" xmlns:xlink="http://www.w3.org/1999/xlink" width="80" height="60" viewBox="0 0 80 60">
  <defs>
    <filter id="左侧边栏-icon-bg" x="-10" y="-22" width="100" height="100" filterUnits="userSpaceOnUse">
      <feOffset dy="8" input="SourceAlpha"/>
      <feGaussianBlur stdDeviation="10" result="blur"/>
      <feFlood flood-color="#8bb8ff"/>
      <feComposite operator="in" in2="blur"/>
      <feComposite in="SourceGraphic"/>
    </filter>
    <clipPath id="clip-Layout-sel">
      <rect width="80" height="60"/>
    </clipPath>
  </defs>
  <g id="Layout-sel" clip-path="url(#clip-Layout-sel)">
    <g id="左侧边栏-icon-bg-2" data-name="左侧边栏-icon-bg" transform="translate(20)">
      <g transform="matrix(1, 0, 0, 1, -20, 0)" filter="url(#左侧边栏-icon-bg)">
        <rect id="左侧边栏-icon-bg-3" data-name="左侧边栏-icon-bg" width="40" height="40" rx="8" transform="translate(20)" fill="#3986ff"/>
      </g>
    </g>
    <rect id="占位" width="80" height="60" fill="none" opacity="0.272"/>
    <g id="组_1896" data-name="组 1896" transform="translate(20)">
      <path id="路径_1567" data-name="路径 1567" d="M30,14v-.867A3.963,3.963,0,0,0,26.242,9H13.758A3.963,3.963,0,0,0,10,13.133V14Z" fill="#fff"/>
      <path id="路径_1568" data-name="路径 1568" d="M16,16H10V26.867A3.963,3.963,0,0,0,13.758,31H16Z" fill="#fff"/>
      <path id="路径_1569" data-name="路径 1569" d="M18,16V31h8.242A3.963,3.963,0,0,0,30,26.867V16Z" fill="#fff"/>
    </g>
  </g>
</svg>
