<svg xmlns="http://www.w3.org/2000/svg" xmlns:xlink="http://www.w3.org/1999/xlink" width="34" height="34" viewBox="0 0 34 34">
  <defs>
    <clipPath id="clip-legend_deretract_hover">
      <rect width="34" height="34"/>
    </clipPath>
  </defs>
  <g id="legend_deretract_hover" clip-path="url(#clip-legend_deretract_hover)">
    <g id="legend__retract" data-name="legend_ retract" transform="translate(-867 -376)">
      <rect id="功能按钮" width="34" height="34" rx="8" transform="translate(867 376)" fill="rgba(118,202,255,0.16)"/>
      <g id="组_2103" data-name="组 2103" transform="translate(973.05 202.506)">
        <g id="组_2112" data-name="组 2112" transform="translate(-95.416 181.494)">
          <g id="组_2100" data-name="组 2100" transform="translate(0 5.999)">
            <path id="路径_1757" data-name="路径 1757" d="M-83.847,181.494a1.111,1.111,0,0,0-.71.251l-4.545,3.771-4.546-3.771a1.127,1.127,0,0,0-1.492.064.9.9,0,0,0,.07,1.361l5.257,4.36a1.132,1.132,0,0,0,1.422,0l5.256-4.36a.9.9,0,0,0,.07-1.361A1.1,1.1,0,0,0-83.847,181.494Z" transform="translate(95.416 -181.494)" fill="#444f61"/>
          </g>
          <path id="路径_1758" data-name="路径 1758" d="M-83.847,187.493a1.105,1.105,0,0,0-.71.251l-4.545,3.77-4.546-3.77a1.127,1.127,0,0,0-1.492.064.9.9,0,0,0,.07,1.36l5.257,4.361a1.132,1.132,0,0,0,1.422,0l5.256-4.361a.9.9,0,0,0,.07-1.36A1.1,1.1,0,0,0-83.847,187.493Z" transform="translate(95.416 -187.493)" fill="#444f61" opacity="0.3"/>
        </g>
        <g id="组_2102" data-name="组 2102">
          <path id="路径_1759" data-name="路径 1759" d="M-82.107,199.494H-95.994a1.013,1.013,0,0,1-1.056-.964,1.013,1.013,0,0,1,1.056-.963h13.887a1.013,1.013,0,0,1,1.057.963A1.013,1.013,0,0,1-82.107,199.494Z" fill="#444f61"/>
        </g>
      </g>
    </g>
  </g>
</svg>
