<svg xmlns="http://www.w3.org/2000/svg" xmlns:xlink="http://www.w3.org/1999/xlink" width="34" height="34" viewBox="0 0 34 34">
  <defs>
    <linearGradient id="linear-gradient" x1="0.5" y1="1" x2="0.5" y2="0.126" gradientUnits="objectBoundingBox">
      <stop offset="0" stop-color="#fff"/>
      <stop offset="1" stop-color="#fff"/>
    </linearGradient>
    <clipPath id="clip-legend_deretract_sel">
      <rect width="34" height="34"/>
    </clipPath>
  </defs>
  <g id="legend_deretract_sel" clip-path="url(#clip-legend_deretract_sel)">
    <rect id="功能按钮" width="34" height="34" rx="8" fill="#76caff"/>
    <g id="组_2110" data-name="组 2110" transform="translate(10.634 8)">
      <g id="组_2100" data-name="组 2100" transform="translate(0 5.999)">
        <path id="路径_1757" data-name="路径 1757" d="M-83.847,181.494a1.111,1.111,0,0,0-.71.251l-4.545,3.771-4.546-3.771a1.127,1.127,0,0,0-1.492.064.9.9,0,0,0,.07,1.361l5.257,4.36a1.132,1.132,0,0,0,1.422,0l5.256-4.36a.9.9,0,0,0,.07-1.361A1.1,1.1,0,0,0-83.847,181.494Z" transform="translate(95.416 -181.494)" fill="#fff"/>
      </g>
      <path id="路径_1758" data-name="路径 1758" d="M-83.847,187.493a1.105,1.105,0,0,0-.71.251l-4.545,3.77-4.546-3.77a1.127,1.127,0,0,0-1.492.064.9.9,0,0,0,.07,1.36l5.257,4.361a1.132,1.132,0,0,0,1.422,0l5.256-4.361a.9.9,0,0,0,.07-1.36A1.1,1.1,0,0,0-83.847,187.493Z" transform="translate(95.416 -187.493)" opacity="0.3" fill="url(#linear-gradient)"/>
    </g>
    <g id="组_2102" data-name="组 2102" transform="translate(106.05 -173.494)">
      <path id="路径_1759" data-name="路径 1759" d="M-82.107,199.494H-95.994a1.013,1.013,0,0,1-1.056-.964,1.013,1.013,0,0,1,1.056-.963h13.887a1.013,1.013,0,0,1,1.057.963A1.013,1.013,0,0,1-82.107,199.494Z" fill="#fff"/>
    </g>
  </g>
</svg>
