<svg xmlns="http://www.w3.org/2000/svg" xmlns:xlink="http://www.w3.org/1999/xlink" width="34" height="34" viewBox="0 0 34 34">
  <defs>
    <clipPath id="clip-legend__retract_sel">
      <rect width="34" height="34"/>
    </clipPath>
  </defs>
  <g id="legend__retract_sel" data-name="legend_ retract_sel" clip-path="url(#clip-legend__retract_sel)">
    <rect id="功能按钮" width="34" height="34" rx="8" fill="#c333d6"/>
    <g id="组_2103" data-name="组 2103" transform="translate(106.05 -173.494)">
      <g id="组_2100" data-name="组 2100">
        <path id="路径_1757" data-name="路径 1757" d="M-83.847,187.781a1.111,1.111,0,0,1-.71-.251l-4.545-3.771-4.546,3.771a1.127,1.127,0,0,1-1.492-.064.9.9,0,0,1,.07-1.361l5.257-4.36a1.132,1.132,0,0,1,1.422,0l5.256,4.36a.9.9,0,0,1,.07,1.361A1.1,1.1,0,0,1-83.847,187.781Z" fill="#fff"/>
      </g>
      <path id="路径_1758" data-name="路径 1758" d="M-83.847,193.78a1.105,1.105,0,0,1-.71-.251l-4.545-3.77-4.546,3.77a1.127,1.127,0,0,1-1.492-.064.9.9,0,0,1,.07-1.36l5.257-4.361a1.132,1.132,0,0,1,1.422,0l5.256,4.361a.9.9,0,0,1,.07,1.36A1.1,1.1,0,0,1-83.847,193.78Z" fill="#fff" opacity="0.3"/>
      <g id="组_2102" data-name="组 2102">
        <path id="路径_1759" data-name="路径 1759" d="M-82.107,199.494H-95.994a1.013,1.013,0,0,1-1.056-.964,1.013,1.013,0,0,1,1.056-.963h13.887a1.013,1.013,0,0,1,1.057.963A1.013,1.013,0,0,1-82.107,199.494Z" fill="#fff"/>
      </g>
    </g>
  </g>
</svg>
