<svg xmlns="http://www.w3.org/2000/svg" xmlns:xlink="http://www.w3.org/1999/xlink" width="34" height="34" viewBox="0 0 34 34">
  <defs>
    <clipPath id="clip-legend_seams_sel">
      <rect width="34" height="34"/>
    </clipPath>
  </defs>
  <g id="legend_seams_sel" clip-path="url(#clip-legend_seams_sel)">
    <g id="功能按钮">
      <rect id="功能按钮-2" data-name="功能按钮" width="34" height="34" rx="8" fill="#3986ff"/>
    </g>
    <g id="组_2109" data-name="组 2109" transform="translate(16.709 -150.474)">
      <path id="路径_1763" data-name="路径 1763" d="M7.274,163.931a.393.393,0,0,0,.179-.53.4.4,0,0,0-.536-.177L1.284,166A2.243,2.243,0,0,1-.7,166l-5.716-2.815a.4.4,0,0,0-.536.177.393.393,0,0,0,.179.53l5.435,2.676a2.195,2.195,0,0,1,1.231,1.965v7.548a.4.4,0,0,0,.4.4.4.4,0,0,0,.4-.4v-7.548a2.195,2.195,0,0,1,1.231-1.965Z" fill="#fff"/>
      <path id="路径_1764" data-name="路径 1764" d="M-.332,165.034a1.413,1.413,0,0,0,1.246,0l5.538-2.728a1.441,1.441,0,0,1,.47-.129L1.01,158.671a1.414,1.414,0,0,0-1.438,0L-6.3,162.15a1.424,1.424,0,0,1,.344.116Z" fill="#fff"/>
      <path id="路径_1765" data-name="路径 1765" d="M-1.149,168.66a1.377,1.377,0,0,0-.773-1.233l-5.317-2.619a1.424,1.424,0,0,1-.47-.374v7.235a1.374,1.374,0,0,0,.677,1.181l5.911,3.5a1.389,1.389,0,0,1-.028-.276Z" fill="#fff"/>
      <path id="路径_1766" data-name="路径 1766" d="M7.737,164.85,2.5,167.427a1.377,1.377,0,0,0-.772,1.233v7.419a1.467,1.467,0,0,1-.028.276l5.911-3.5a1.374,1.374,0,0,0,.677-1.181V164.36A1.436,1.436,0,0,1,7.737,164.85Z" fill="#fff"/>
    </g>
  </g>
</svg>
