<svg xmlns="http://www.w3.org/2000/svg" xmlns:xlink="http://www.w3.org/1999/xlink" width="34" height="34" viewBox="0 0 34 34">
  <defs>
    <clipPath id="clip-legend_travel_hover">
      <rect width="34" height="34"/>
    </clipPath>
  </defs>
  <g id="legend_travel_hover" clip-path="url(#clip-legend_travel_hover)">
    <g id="功能按钮">
      <rect id="功能按钮-2" data-name="功能按钮" width="34" height="34" rx="8" fill="rgba(57,134,255,0.16)"/>
    </g>
    <g id="组_2099" data-name="组 2099" transform="translate(148.723 -172.526)">
      <path id="路径_1745" data-name="路径 1745" d="M-135.906,184.179v-4.652h-3.936v4.652l1.968,2.38Z" fill="#444f61"/>
      <path id="路径_1746" data-name="路径 1746" d="M-126.658,190.494v4.652l1.968,2.38,1.968-2.38v-4.652Z" fill="#444f61"/>
      <path id="路径_1747" data-name="路径 1747" d="M-127.726,196.457h-1.059a.522.522,0,0,0-.53.514.522.522,0,0,0,.53.514h1.059a.522.522,0,0,0,.53-.514A.522.522,0,0,0-127.726,196.457Z" fill="#444f61"/>
      <path id="路径_1748" data-name="路径 1748" d="M-139.666,194.044a.526.526,0,0,0-.576-.464.519.519,0,0,0-.478.56,3.656,3.656,0,0,0,1.017,2.181.536.536,0,0,0,.386.162.537.537,0,0,0,.362-.14.5.5,0,0,0,.023-.726A2.64,2.64,0,0,1-139.666,194.044Z" fill="#444f61"/>
      <path id="路径_1749" data-name="路径 1749" d="M-128.215,186.617a.506.506,0,0,0-.247.685,1.977,1.977,0,0,1,.206.886,1.989,1.989,0,0,1-.142.744.508.508,0,0,0,.3.665.538.538,0,0,0,.192.035.531.531,0,0,0,.494-.327,3,3,0,0,0,.215-1.116,3.011,3.011,0,0,0-.312-1.333A.536.536,0,0,0-128.215,186.617Z" fill="#444f61"/>
      <path id="路径_1750" data-name="路径 1750" d="M-128.91,190.367a.529.529,0,0,0-.662-.34,1.706,1.706,0,0,1-.491.072h-1.508a.521.521,0,0,0-.53.513.522.522,0,0,0,.53.514h1.508a2.761,2.761,0,0,0,.8-.118A.511.511,0,0,0-128.91,190.367Z" fill="#444f61"/>
      <path id="路径_1751" data-name="路径 1751" d="M-131.774,186.28h1.711a1.762,1.762,0,0,1,.342.033.5.5,0,0,0,.108.011.526.526,0,0,0,.518-.41.514.514,0,0,0-.412-.606,2.781,2.781,0,0,0-.556-.056h-1.711a.522.522,0,0,0-.53.514A.522.522,0,0,0-131.774,186.28Z" fill="#444f61"/>
      <path id="路径_1752" data-name="路径 1752" d="M-139.982,192.521a.543.543,0,0,0,.284.08.534.534,0,0,0,.447-.237,2.752,2.752,0,0,1,1.39-1.082.511.511,0,0,0,.319-.658.539.539,0,0,0-.678-.309,3.815,3.815,0,0,0-1.925,1.5A.5.5,0,0,0-139.982,192.521Z" fill="#444f61"/>
      <path id="路径_1753" data-name="路径 1753" d="M-130.95,196.457h-2.164a.522.522,0,0,0-.53.514.522.522,0,0,0,.53.514h2.164a.522.522,0,0,0,.53-.514A.522.522,0,0,0-130.95,196.457Z" fill="#444f61"/>
      <path id="路径_1754" data-name="路径 1754" d="M-133.205,190.612a.521.521,0,0,0-.53-.513H-135.9a.521.521,0,0,0-.53.513.522.522,0,0,0,.53.514h2.164A.522.522,0,0,0-133.205,190.612Z" fill="#444f61"/>
      <path id="路径_1755" data-name="路径 1755" d="M-135.278,196.457h-1.65a2.915,2.915,0,0,1-.431-.032.53.53,0,0,0-.6.43.516.516,0,0,0,.442.586,4,4,0,0,0,.593.044h1.65a.522.522,0,0,0,.53-.514A.522.522,0,0,0-135.278,196.457Z" fill="#444f61"/>
      <path id="路径_1756" data-name="路径 1756" d="M-135.03,186.28h1.059a.522.522,0,0,0,.53-.514.522.522,0,0,0-.53-.514h-1.059a.522.522,0,0,0-.53.514A.522.522,0,0,0-135.03,186.28Z" fill="#444f61"/>
    </g>
  </g>
</svg>
