<svg xmlns="http://www.w3.org/2000/svg" xmlns:xlink="http://www.w3.org/1999/xlink" width="80" height="60" viewBox="0 0 80 60">
  <defs>
    <filter id="左侧边栏-icon-bg" x="-10" y="-22" width="100" height="100" filterUnits="userSpaceOnUse">
      <feOffset dy="8" input="SourceAlpha"/>
      <feGaussianBlur stdDeviation="10" result="blur"/>
      <feFlood flood-color="#8bb8ff"/>
      <feComposite operator="in" in2="blur"/>
      <feComposite in="SourceGraphic"/>
    </filter>
    <clipPath id="clip-OnFace-sel">
      <rect width="80" height="60"/>
    </clipPath>
  </defs>
  <g id="OnFace-sel" clip-path="url(#clip-OnFace-sel)">
    <g id="左侧边栏-icon-bg-2" data-name="左侧边栏-icon-bg" transform="translate(20)">
      <g transform="matrix(1, 0, 0, 1, -20, 0)" filter="url(#左侧边栏-icon-bg)">
        <rect id="左侧边栏-icon-bg-3" data-name="左侧边栏-icon-bg" width="40" height="40" rx="8" transform="translate(20)" fill="#3986ff"/>
      </g>
    </g>
    <rect id="占位" width="80" height="60" fill="none" opacity="0.272"/>
    <g id="组_1937" data-name="组 1937" transform="translate(20 0)">
      <path id="路径_1601" data-name="路径 1601" d="M33.56,12.438a4.162,4.162,0,0,0-2.419-2.11L21.91,7.221A4.2,4.2,0,0,0,16.6,9.859L13.491,19.09A4.2,4.2,0,0,0,16.128,24.4l9.232,3.106h0a4.195,4.195,0,0,0,5.313-2.637l3.106-9.231A4.165,4.165,0,0,0,33.56,12.438Z" fill="#fff"/>
      <path id="路径_1602" data-name="路径 1602" d="M8.195,26.464l-2.05-4.011a.38.38,0,0,1,.406-.547l5.5.994a.38.38,0,0,1,.183.66L8.784,26.577A.38.38,0,0,1,8.195,26.464Z" fill="#fff"/>
      <path id="路径_1603" data-name="路径 1603" d="M8.124,23.206l.075-.495c.475-3.147,2.739-5.2,6.209-5.645L14.9,17l.252,1.984-.5.063c-2.591.327-4.142,1.7-4.485,3.96L10.1,23.5Z" fill="#fff"/>
      <rect id="矩形_526" data-name="矩形 526" width="28" height="2" rx="1" transform="translate(6 30)" fill="#fff"/>
    </g>
  </g>
</svg>
