<svg xmlns="http://www.w3.org/2000/svg" xmlns:xlink="http://www.w3.org/1999/xlink" width="32" height="32" viewBox="0 0 32 32">
  <defs>
    <clipPath id="clip-压力校准_pressed">
      <rect width="32" height="32"/>
    </clipPath>
  </defs>
  <g id="压力校准_pressed" clip-path="url(#clip-压力校准_pressed)">
    <g id="矩形_804" data-name="矩形 804" fill="#ebeff5" stroke="#1d69e0" stroke-width="1">
      <rect width="32" height="32" rx="8" stroke="none"/>
      <rect x="0.5" y="0.5" width="31" height="31" rx="7.5" fill="none"/>
    </g>
    <path id="路径_2120" data-name="路径 2120" d="M-3165.618-904.251h-1.885a9.139,9.139,0,0,0-8.664-8.664V-914.8h-.9v1.885a9.139,9.139,0,0,0-8.664,8.664h-1.885v.9h1.885a9.139,9.139,0,0,0,8.664,8.664v1.885h.9v-1.885a9.139,9.139,0,0,0,8.664-8.664h1.885Zm-2.789,0h-1.323a6.9,6.9,0,0,0-6.436-6.436v-1.323A8.235,8.235,0,0,1-3168.407-904.251Zm-4.642,1.083a.359.359,0,0,1,.132.247.367.367,0,0,1-.131.251l-.032.033c-.04.041-.081.082-.124.123a.321.321,0,0,1-.223.1.309.309,0,0,1-.219-.1c-.285-.283-.621-.616-.948-.947a.438.438,0,0,1,0-.644c.323-.325.655-.656.941-.94a.319.319,0,0,1,.228-.111.322.322,0,0,1,.223.1c.053.051.111.108.179.18a.288.288,0,0,1,0,.449c-.065.067-.132.134-.2.2h.742c.369,0,.651,0,.916,0h0a.34.34,0,0,1,.338.2l.012.026v.427l-.011.025a.337.337,0,0,1-.338.206h0c-.265,0-.548,0-.919,0h-.748C-3173.169-903.285-3173.109-903.227-3173.049-903.168Zm-1.992.424a8.381,8.381,0,0,0,.978,3.333c.021.037.044.074.066.111l.049.081a.289.289,0,0,1-.091.428c-.053.039-.108.074-.16.109l-.04.027a.375.375,0,0,1-.208.074.3.3,0,0,1-.259-.185l-.092-.169c-.138-.255-.281-.518-.4-.789a9.314,9.314,0,0,1-.687-2.619,11.619,11.619,0,0,1-.035-2.567,9.279,9.279,0,0,1,1.026-3.568c.07-.13.146-.251.217-.363s.1-.174.2-.174a.369.369,0,0,1,.194.081c.08.051.165.105.246.164a.286.286,0,0,1,.084.424,6.8,6.8,0,0,0-.735,1.673,9.694,9.694,0,0,0-.362,1.929A10.773,10.773,0,0,0-3175.041-902.744Zm-2.029-9.266v1.323a6.9,6.9,0,0,0-6.436,6.436h-1.323A8.235,8.235,0,0,1-3177.07-912.009Zm-3.688,8.666c-.367,0-.649,0-.914,0h0a.339.339,0,0,1-.338-.2l-.011-.026V-904l.011-.025a.338.338,0,0,1,.338-.205h0c.264,0,.546,0,.916,0h.749l-.179-.175a.359.359,0,0,1-.131-.247.366.366,0,0,1,.131-.251l.041-.042c.045-.045.091-.092.141-.137a.3.3,0,0,1,.2-.081.287.287,0,0,1,.2.089c.351.348.668.662.984.986a.429.429,0,0,1-.006.6c-.334.34-.676.679-.969.971a.3.3,0,0,1-.211.1h0a.314.314,0,0,1-.216-.1c-.063-.059-.127-.122-.2-.2a.287.287,0,0,1,.007-.442c.066-.067.133-.134.2-.2Zm1.469,4.126a7.166,7.166,0,0,0,.841-2.053,9.906,9.906,0,0,0,.258-1.548,10.464,10.464,0,0,0,.015-1.757,8.227,8.227,0,0,0-1.11-3.766.293.293,0,0,1,.095-.439c.041-.029.082-.056.122-.082l.06-.04a.4.4,0,0,1,.222-.085.317.317,0,0,1,.264.2l.086.16c.142.261.288.53.409.809a8.687,8.687,0,0,1,.652,2.449c.043.362.072.73.1,1.086v0a10.663,10.663,0,0,1-.6,4.15,7.481,7.481,0,0,1-.654,1.363.323.323,0,0,1-.262.182.388.388,0,0,1-.22-.083l-.07-.046,0,0c-.039-.025-.078-.051-.117-.079A.286.286,0,0,1-3179.289-899.217Zm-5.54-4.13h1.323a6.9,6.9,0,0,0,6.436,6.436v1.323A8.235,8.235,0,0,1-3184.829-903.347Zm8.662,7.759v-1.323a6.9,6.9,0,0,0,6.436-6.436h1.323A8.235,8.235,0,0,1-3176.166-895.589Z" transform="translate(3192.618 919.799)" fill="#3c4f73"/>
  </g>
</svg>
