<svg xmlns="http://www.w3.org/2000/svg" xmlns:xlink="http://www.w3.org/1999/xlink" width="80" height="60" viewBox="0 0 80 60">
  <defs>
    <clipPath id="clip-rotate-disable">
      <rect width="80" height="60"/>
    </clipPath>
  </defs>
  <g id="rotate-disable" clip-path="url(#clip-rotate-disable)">
    <rect id="占位" width="80" height="60" fill="none" opacity="0.272"/>
    <g id="左侧边栏-icon-bg" transform="translate(20)">
      <rect id="左侧边栏-icon-bg-2" data-name="左侧边栏-icon-bg" width="40" height="40" rx="8" fill="#f4f4f4"/>
    </g>
    <g id="组_1935" data-name="组 1935" transform="translate(20 0.159)">
      <g id="组_1932" data-name="组 1932" transform="translate(0 -0.159)">
        <rect id="矩形_525" data-name="矩形 525" width="18" height="13" rx="2" transform="translate(9 17)" fill="#a8a8a8"/>
      </g>
      <g id="组_1933" data-name="组 1933">
        <path id="路径_1599" data-name="路径 1599" d="M32,24a1,1,0,0,1-1-1c0-4.09-1.131-7.211-3.362-9.275-3.442-3.188-8.447-2.841-8.5-2.837a1,1,0,0,1-.16-1.994c.239-.015,5.9-.432,10,3.347C31.648,14.7,33,18.32,33,23A1,1,0,0,1,32,24Z" fill="#a8a8a8"/>
      </g>
      <g id="组_1934" data-name="组 1934">
        <path id="路径_1600" data-name="路径 1600" d="M17.348,13.626,13.382,10.6a.942.942,0,0,1,0-1.515l3.966-3.028A1.022,1.022,0,0,1,19,6.812v6.057A1.022,1.022,0,0,1,17.348,13.626Z" fill="#a8a8a8"/>
      </g>
    </g>
  </g>
</svg>
