<svg xmlns="http://www.w3.org/2000/svg" xmlns:xlink="http://www.w3.org/1999/xlink" width="80" height="60" viewBox="0 0 80 60">
  <defs>
    <clipPath id="clip-scale-nor">
      <rect width="80" height="60"/>
    </clipPath>
  </defs>
  <g id="scale-nor" clip-path="url(#clip-scale-nor)">
    <rect id="占位" width="80" height="60" fill="none" opacity="0.272"/>
    <g id="icon-scale" transform="translate(0 -292)">
      <g id="左侧边栏-icon-bg" transform="translate(20 292)">
        <rect id="左侧边栏-icon-bg-2" data-name="左侧边栏-icon-bg" width="40" height="40" rx="8" fill="#f0f3fa"/>
      </g>
      <g id="组_1903" data-name="组 1903" transform="translate(20 292)">
        <path id="矩形_486" data-name="矩形 486" d="M0,0H9A0,0,0,0,1,9,0V9A0,0,0,0,1,9,9H4A4,4,0,0,1,0,5V0A0,0,0,0,1,0,0Z" transform="translate(9 22)" fill="#6b7280"/>
        <path id="路径_1578" data-name="路径 1578" d="M9,13v7H20V31h7a4,4,0,0,0,4-4V13a4,4,0,0,0-4-4H13A4,4,0,0,0,9,13Z" fill="#6b7280"/>
      </g>
    </g>
  </g>
</svg>
