<?xml version="1.0" encoding="UTF-8" standalone="no"?>
<!-- Uploaded to: SVG Repo, www.svgrepo.com, Generator: SVG Repo Mixer Tools -->

<svg
   width="800px"
   height="800px"
   viewBox="0 0 1024 1024"
   class="icon"
   version="1.1"
   id="svg842"
   sodipodi:docname="sla_view_original.svg"
   inkscape:version="1.1 (c68e22c387, 2021-05-23)"
   xmlns:inkscape="http://www.inkscape.org/namespaces/inkscape"
   xmlns:sodipodi="http://sodipodi.sourceforge.net/DTD/sodipodi-0.dtd"
   xmlns="http://www.w3.org/2000/svg"
   xmlns:svg="http://www.w3.org/2000/svg">
  <defs
     id="defs846" />
  <sodipodi:namedview
     id="namedview844"
     pagecolor="#505050"
     bordercolor="#eeeeee"
     borderopacity="1"
     inkscape:pageshadow="0"
     inkscape:pageopacity="0"
     inkscape:pagecheckerboard="0"
     showgrid="false"
     inkscape:zoom="0.69208076"
     inkscape:cx="399.51985"
     inkscape:cy="496.32936"
     inkscape:window-width="1920"
     inkscape:window-height="1001"
     inkscape:window-x="-9"
     inkscape:window-y="-9"
     inkscape:window-maximized="1"
     inkscape:current-layer="svg842" />
  <path
     d="M964.266667 812.8c2.133333-8.533333 2.133333-17.066667 2.133333-23.466667s0-17.066667-2.133333-23.466666l49.066666-36.266667c4.266667-4.266667 6.4-10.666667 4.266667-14.933333l-49.066667-83.2c-2.133333-4.266667-8.533333-6.4-14.933333-4.266667l-55.466667 25.6c-12.8-10.666667-27.733333-19.2-42.666666-25.6l-6.4-61.866667c0-6.4-6.4-10.666667-10.666667-10.666666h-96c-6.4 0-10.666667 4.266667-10.666667 10.666666l-6.4 61.866667c-14.933333 6.4-29.866667 14.933333-42.666666 25.6l-55.466667-25.6c-6.4-2.133333-12.8 0-14.933333 4.266667l-49.066667 83.2c-2.133333 4.266667-2.133333 12.8 4.266667 14.933333l49.066666 36.266667c-2.133333 8.533333-2.133333 17.066667-2.133333 23.466666s0 17.066667 2.133333 23.466667l-49.066666 36.266667c-4.266667 4.266667-6.4 10.666667-4.266667 14.933333l49.066667 83.2c2.133333 4.266667 8.533333 6.4 14.933333 4.266667l55.466667-25.6c12.8 10.666667 27.733333 19.2 42.666666 25.6l6.4 61.866666c0 6.4 6.4 10.666667 10.666667 10.666667h96c6.4 0 10.666667-4.266667 10.666667-10.666667l6.4-61.866666c14.933333-6.4 29.866667-14.933333 42.666666-25.6l55.466667 25.6c6.4 2.133333 12.8 0 14.933333-4.266667l49.066667-83.2c2.133333-4.266667 2.133333-12.8-4.266667-14.933333l-49.066666-36.266667zM789.333333 900.266667c-61.866667 0-110.933333-49.066667-110.933333-110.933334 0-61.866667 49.066667-110.933333 110.933333-110.933333 61.866667 0 110.933333 49.066667 110.933334 110.933333 0 61.866667-49.066667 110.933333-110.933334 110.933334z"
     fill="#607D8B"
     id="path838"
     style="fill:#ffffff;fill-opacity:1" />
  <path
     d="M789.333333 661.333333c-70.4 0-128 57.6-128 128s57.6 128 128 128 128-57.6 128-128-57.6-128-128-128z m0 192c-36.266667 0-64-27.733333-64-64s27.733333-64 64-64 64 27.733333 64 64-27.733333 64-64 64z"
     fill="#455A64"
     id="path840"
     style="fill:#646464;fill-opacity:0" />
  <path
     d="M 464.75606,385.71647 H 220.52618 c -23.46667,0 -42.66667,19.2 -42.66667,42.66668 v 171.15708 c 0,23.46667 19.2,42.66667 42.66667,42.66667 h 244.22988 c 23.46668,0 42.66668,-19.2 42.66668,-42.66667 V 428.38315 c 0,-23.46668 -19.2,-42.66668 -42.66668,-42.66668 z"
     style="fill:#f7c0a1;stroke-width:1.28;fill-opacity:1"
     id="path1447"
     sodipodi:nodetypes="sssssssss" />
  <path
     style="fill:#ed6b21;fill-opacity:1;stroke-width:0;paint-order:stroke fill markers"
     d="m 158.31475,281.62793 c -9.13538,-2.47451 -17.55246,-9.78885 -21.77597,-18.92305 -2.14973,-4.64921 -2.18374,-5.6297 -2.18374,-62.96031 v -58.23755 l 2.5171,-5.10855 c 3.53239,-7.16911 11.05319,-14.20236 17.94366,-16.78042 l 5.66954,-2.12124 H 400 639.51466 l 5.66953,2.12124 c 6.89048,2.57806 14.41128,9.61131 17.94367,16.78042 l 2.5171,5.10855 v 58.23755 58.23755 l -2.83063,5.76399 c -3.30254,6.725 -10.14711,13.42226 -16.91326,16.54928 l -4.77719,2.2078 -239.08046,0.19191 c -186.73355,0.14989 -240.09819,-0.0838 -243.72867,-1.06717 z"
     id="path7485"
     transform="scale(1.28)" />
  <path
     style="fill:#ed6b21;fill-opacity:1;stroke-width:0;paint-order:stroke fill markers"
     d="m 437.21118,499.60629 c -10.08409,-1.70675 -19.55357,-8.84836 -24.15393,-18.21621 l -2.84014,-5.78344 v -75.09578 -75.09579 l 2.84014,-5.78344 c 3.4061,-6.93594 9.17745,-12.3958 16.96062,-16.04525 l 5.74203,-2.69238 h 102.17113 102.17114 l 5.74203,2.69238 c 7.78317,3.64945 13.55451,9.10931 16.96062,16.04525 l 2.84014,5.78344 0.12731,66.92209 c 0.10556,55.49011 -0.0746,65.14125 -1.0544,56.49709 -0.97739,-8.62265 -1.60428,-10.87483 -3.62597,-13.02682 l -2.44427,-2.60181 h -41.24765 -41.24765 l -2.50783,2.50784 c -1.37931,1.37931 -2.5167,3.56322 -2.52753,4.85313 -0.0297,3.54851 -4.90813,49.01817 -5.27775,49.19231 -0.17708,0.0835 -5.14956,2.57971 -11.04995,5.54727 l -10.72797,5.39556 -14.94254,-0.0316 -14.94253,-0.0316 -12.03854,-5.65658 c -16.76712,-7.87841 -21.03033,-7.77771 -25.74014,0.60802 l -2.83433,5.04647 -15.83653,-0.11915 c -8.71009,-0.0655 -17.94207,-0.47549 -20.51551,-0.91106 z"
     id="path7524"
     transform="scale(1.28)" />
  <path
     style="fill:#ed6b21;fill-opacity:1;stroke-width:0;paint-order:stroke fill markers"
     d="m 154.98937,680.48972 c -7.22252,-2.82207 -13.15353,-8.19884 -17.12576,-15.5254 l -3.50857,-6.47134 v -58.23755 c 0,-57.52794 0.0269,-58.29576 2.20781,-63.01474 3.12702,-6.76614 9.82428,-13.61071 16.54928,-16.91326 l 5.76399,-2.83062 152.41872,-0.27172 152.41871,-0.27172 -12.21117,20.70595 c -6.71614,11.38827 -12.48085,21.74042 -12.81046,23.00479 -1.33796,5.13249 0.30977,6.86623 21.05574,22.15497 11.25014,8.29079 20.61354,15.37577 20.80755,15.7444 0.194,0.36863 -0.1096,4.69322 -0.67466,9.61021 -0.66837,5.81596 -0.68702,12.03751 -0.0533,17.80415 l 0.97403,8.86416 -19.66637,14.61906 c -10.8165,8.04047 -20.1462,15.51562 -20.73266,16.61144 -1.65622,3.09465 -1.2651,7.94874 0.99788,12.38455 l 2.06417,4.04614 -141.78323,-0.0478 c -136.20291,-0.0459 -141.9764,-0.12328 -146.69167,-1.96569 z"
     id="path7563"
     transform="scale(1.28)" />
  <path
     style="fill:#ffffff;fill-opacity:1;stroke-width:0;paint-order:stroke fill markers;fill-rule:nonzero;stroke:none;stroke-opacity:1"
     d="m 604.62085,664.56707 c -24.60818,-5.96525 -40.42276,-29.63578 -36.74461,-54.99766 4.89008,-33.71857 40.85293,-52.20054 71.62153,-36.80764 18.19443,9.1023 28.95735,30.19449 25.97417,50.90177 -4.18305,29.03597 -32.17825,47.85408 -60.85109,40.90353 z"
     id="path7602"
     transform="scale(1.28)" />
</svg>
