<?xml version="1.0" encoding="utf-8"?>
<!-- Generator: Adobe Illustrator 26.2.1, SVG Export Plug-In . SVG Version: 6.00 Build 0)  -->
<svg version="1.1" id="Capa_1" xmlns="http://www.w3.org/2000/svg" xmlns:xlink="http://www.w3.org/1999/xlink" x="0px" y="0px"
	 viewBox="0 0 794.8 681.4" style="enable-background:new 0 0 794.8 681.4;" xml:space="preserve">
<style type="text/css">
	.st0{fill:none;stroke:#FFFFFF;stroke-width:1.0002;stroke-miterlimit:11.3405;}
	.st1{fill:#EFE4E4;stroke:#FFFFFF;stroke-width:1.0002;stroke-miterlimit:11.3405;}
	.st2{enable-background:new    ;}
	.st3{fill:none;stroke:#FFFFFF;stroke-miterlimit:11.3386;}
</style>
<path class="st0" d="M23.2,0.5h756.1c8.3,0,15,5.5,15,12.3l0,0v626.3c0,6.8-6.7,12.3-15,12.3H15.5c-8.3,0-15-5.5-15-12.3l0,0v-620
	C0.5,8.8,10.6,0.5,23.2,0.5z"/>
<polygon class="st1" points="530.6,680.9 264.2,680.9 238.5,651.4 556.8,651.4 "/>
<g class="st2">
	<path class="st3" d="M342.5,609.5l2.7-0.2c0.1,0.9,0.4,1.6,0.9,2.2s1.2,1,2.2,1.4s2.1,0.5,3.4,0.5c1.1,0,2.1-0.1,2.9-0.4
		c0.8-0.3,1.5-0.6,1.9-1.1c0.4-0.5,0.6-1,0.6-1.5c0-0.6-0.2-1.1-0.6-1.5s-1.1-0.8-2-1.1c-0.6-0.2-1.9-0.5-3.9-0.9
		c-2-0.4-3.4-0.8-4.2-1.1c-1-0.4-1.8-1-2.3-1.7c-0.5-0.7-0.8-1.4-0.8-2.2c0-0.9,0.3-1.8,0.9-2.5c0.6-0.8,1.5-1.4,2.7-1.8
		c1.2-0.4,2.5-0.6,4-0.6c1.6,0,3.1,0.2,4.3,0.6c1.2,0.4,2.2,1.1,2.9,1.9c0.7,0.8,1,1.8,1.1,2.8l-2.8,0.2c-0.1-1.1-0.7-2-1.5-2.6
		c-0.9-0.6-2.1-0.9-3.8-0.9c-1.8,0-3,0.3-3.8,0.8c-0.8,0.5-1.2,1.2-1.2,1.9c0,0.6,0.3,1.2,0.9,1.6c0.6,0.4,2,0.8,4.4,1.3
		c2.4,0.4,4,0.8,4.8,1.1c1.3,0.5,2.2,1.1,2.8,1.8c0.6,0.7,0.9,1.6,0.9,2.6c0,1-0.3,1.9-1,2.7c-0.7,0.8-1.6,1.5-2.9,2
		s-2.7,0.7-4.2,0.7c-2,0-3.6-0.2-5-0.7c-1.3-0.5-2.4-1.2-3.1-2.1C343,611.7,342.6,610.7,342.5,609.5z"/>
</g>
<g class="st2">
	<path class="st3" d="M357.3,608.7c0-2.4,0.8-4.2,2.4-5.3c1.4-1,3-1.4,5-1.4c2.2,0,4,0.6,5.3,1.8c1.4,1.2,2.1,2.8,2.1,4.8
		c0,1.7-0.3,3-0.9,3.9s-1.5,1.7-2.7,2.2c-1.2,0.5-2.4,0.8-3.8,0.8c-2.2,0-4-0.6-5.4-1.7C358,612.6,357.3,610.9,357.3,608.7z
		 M360,608.7c0,1.7,0.4,2.9,1.3,3.7c0.9,0.8,2,1.2,3.3,1.2c1.3,0,2.4-0.4,3.3-1.2c0.9-0.8,1.3-2.1,1.3-3.8c0-1.6-0.4-2.8-1.3-3.7
		c-0.9-0.8-2-1.2-3.3-1.2c-1.3,0-2.5,0.4-3.3,1.2C360.5,605.8,360,607.1,360,608.7z"/>
</g>
<g class="st2">
	<path class="st3" d="M379.3,615.2l-6-13h2.8l3.4,7.8c0.4,0.8,0.7,1.7,1,2.6c0.2-0.7,0.6-1.5,1-2.5l3.5-7.9h2.8l-6,13H379.3z"/>
</g>
<g class="st2">
	<path class="st3" d="M388.4,608.7c0-2.4,0.8-4.2,2.4-5.3c1.4-1,3-1.4,5-1.4c2.2,0,4,0.6,5.3,1.8s2.1,2.8,2.1,4.8
		c0,1.7-0.3,3-0.9,3.9c-0.6,1-1.5,1.7-2.7,2.2c-1.2,0.5-2.4,0.8-3.8,0.8c-2.2,0-4-0.6-5.4-1.7C389.1,612.6,388.4,610.9,388.4,608.7z
		 M391.1,608.7c0,1.7,0.4,2.9,1.3,3.7c0.9,0.8,2,1.2,3.3,1.2c1.3,0,2.4-0.4,3.3-1.2c0.9-0.8,1.3-2.1,1.3-3.8c0-1.6-0.4-2.8-1.3-3.7
		c-0.9-0.8-2-1.2-3.3-1.2c-1.3,0-2.5,0.4-3.3,1.2C391.6,605.8,391.1,607.1,391.1,608.7z"/>
	<path class="st3" d="M406.3,615.2v-17.9h2.7v17.9H406.3z"/>
	<path class="st3" d="M420.9,610.5l2.7-0.3c0.3,1.2,0.8,2.1,1.6,2.7s1.6,0.8,2.7,0.8c1.3,0,2.3-0.4,3.2-1.1c0.9-0.7,1.3-1.6,1.3-2.7
		c0-1-0.4-1.8-1.2-2.5c-0.8-0.7-1.8-1-3.1-1c-0.5,0-1.1,0.1-1.9,0.2l0.3-1.9c0.2,0,0.3,0,0.4,0c1.1,0,2.2-0.2,3.1-0.7
		c0.9-0.5,1.4-1.2,1.4-2.3c0-0.8-0.3-1.5-1-2c-0.7-0.5-1.5-0.8-2.6-0.8c-1,0-1.9,0.3-2.6,0.8s-1.1,1.3-1.3,2.4l-2.7-0.4
		c0.3-1.5,1.1-2.6,2.2-3.4s2.6-1.2,4.3-1.2c1.2,0,2.3,0.2,3.3,0.6s1.8,1,2.3,1.7s0.8,1.5,0.8,2.3c0,0.8-0.3,1.5-0.8,2.1
		c-0.5,0.6-1.3,1.1-2.3,1.5c1.3,0.2,2.3,0.8,3,1.5c0.7,0.8,1.1,1.7,1.1,2.9c0,1.6-0.7,2.9-2.1,4c-1.4,1.1-3.2,1.6-5.3,1.6
		c-1.9,0-3.5-0.5-4.8-1.4C421.8,613.2,421.1,612,420.9,610.5z"/>
	<path class="st3" d="M439,615.2v-17.9h7.5c1.7,0,3,0.1,3.9,0.3c1.3,0.2,2.3,0.7,3.2,1.3c1.2,0.8,2,1.8,2.6,3.1s0.9,2.7,0.9,4.3
		c0,1.4-0.2,2.6-0.6,3.6c-0.4,1.1-0.9,1.9-1.5,2.6c-0.6,0.7-1.3,1.2-2,1.6c-0.7,0.4-1.6,0.7-2.6,0.9c-1,0.2-2.2,0.3-3.5,0.3H439z
		 M441.9,613.1h4.7c1.4,0,2.6-0.1,3.4-0.3s1.5-0.5,2-0.9c0.7-0.6,1.2-1.3,1.6-2.3c0.4-1,0.6-2.1,0.6-3.5c0-1.9-0.4-3.3-1.1-4.3
		c-0.8-1-1.7-1.7-2.7-2c-0.8-0.2-2-0.4-3.7-0.4h-4.6V613.1z"/>
</g>
</svg>
