<?xml version="1.0" encoding="utf-8"?>
<!-- Generator: Adobe Illustrator 26.2.1, SVG Export Plug-In . SVG Version: 6.00 Build 0)  -->
<svg version="1.1" id="Capa_1" xmlns="http://www.w3.org/2000/svg" xmlns:xlink="http://www.w3.org/1999/xlink" x="0px" y="0px"
	 viewBox="0 0 624.8 624.8" style="enable-background:new 0 0 624.8 624.8;" xml:space="preserve">
<style type="text/css">
	.st0{fill:none;stroke:#FFFFFF;stroke-width:1.0002;stroke-miterlimit:11.3414;}
	.st1{fill:#EFE4E4;stroke:#FFFFFF;stroke-width:1.0002;stroke-miterlimit:11.3414;}
	.st2{enable-background:new    ;}
	.st3{fill:none;stroke:#FFFFFF;stroke-miterlimit:11.3386;}
</style>
<path class="st0" d="M18.3,0.5h594.1c6.4-0.1,11.6,4.9,11.8,11.3l0,0v574.1c0,6.2-5.3,11.2-11.8,11.2H12.3c-6.5,0-11.8-5-11.8-11.2
	l0,0V17.5C0.5,8.1,8.5,0.5,18.3,0.5z"/>
<polygon class="st1" points="417,624.3 207.8,624.3 187.5,597.1 437.6,597.1 "/>
<g class="st2">
	<path class="st3" d="M269.2,558.8l2.2-0.2c0.1,0.8,0.3,1.5,0.7,2c0.4,0.5,1,1,1.7,1.3c0.8,0.3,1.7,0.5,2.6,0.5
		c0.9,0,1.6-0.1,2.3-0.4c0.7-0.2,1.2-0.6,1.5-1s0.5-0.9,0.5-1.4c0-0.5-0.2-1-0.5-1.4c-0.3-0.4-0.8-0.7-1.6-1
		c-0.5-0.2-1.5-0.4-3.1-0.8c-1.6-0.4-2.7-0.7-3.3-1c-0.8-0.4-1.4-0.9-1.8-1.5c-0.4-0.6-0.6-1.3-0.6-2c0-0.8,0.2-1.6,0.7-2.3
		s1.2-1.3,2.2-1.6c0.9-0.4,2-0.6,3.2-0.6c1.3,0,2.4,0.2,3.4,0.6c1,0.4,1.7,1,2.3,1.7c0.5,0.8,0.8,1.6,0.8,2.6l-2.2,0.2
		c-0.1-1-0.5-1.8-1.2-2.4c-0.7-0.5-1.7-0.8-3-0.8c-1.4,0-2.4,0.2-3,0.7s-0.9,1.1-0.9,1.7c0,0.6,0.2,1.1,0.7,1.5
		c0.4,0.4,1.6,0.8,3.4,1.2c1.9,0.4,3.1,0.8,3.8,1c1,0.4,1.7,1,2.2,1.7c0.5,0.7,0.7,1.5,0.7,2.3c0,0.9-0.3,1.7-0.8,2.5
		c-0.5,0.8-1.3,1.4-2.3,1.8c-1,0.4-2.1,0.6-3.3,0.6c-1.6,0-2.9-0.2-3.9-0.7s-1.9-1.1-2.5-2C269.6,560.8,269.3,559.9,269.2,558.8z"/>
</g>
<g class="st2">
	<path class="st3" d="M280.9,558.1c0-2.2,0.6-3.8,1.9-4.9c1.1-0.9,2.4-1.3,3.9-1.3c1.7,0,3.1,0.5,4.2,1.6c1.1,1.1,1.6,2.6,1.6,4.4
		c0,1.5-0.2,2.7-0.7,3.6c-0.5,0.9-1.2,1.6-2.1,2c-0.9,0.5-1.9,0.7-3,0.7c-1.8,0-3.2-0.5-4.2-1.6
		C281.4,561.6,280.9,560.1,280.9,558.1z M283,558.1c0,1.5,0.3,2.7,1,3.4c0.7,0.8,1.6,1.1,2.6,1.1c1.1,0,1.9-0.4,2.6-1.1s1-1.9,1-3.5
		c0-1.5-0.4-2.6-1.1-3.3s-1.6-1.1-2.6-1.1c-1.1,0-1.9,0.4-2.6,1.1C283.4,555.4,283,556.6,283,558.1z"/>
</g>
<g class="st2">
	<path class="st3" d="M298.1,564l-4.8-11.9h2.2l2.7,7.1c0.3,0.8,0.6,1.6,0.8,2.4c0.2-0.6,0.5-1.4,0.8-2.3l2.8-7.3h2.2l-4.7,11.9
		H298.1z"/>
</g>
<g class="st2">
	<path class="st3" d="M305.3,558.1c0-2.2,0.6-3.8,1.9-4.9c1.1-0.9,2.4-1.3,3.9-1.3c1.7,0,3.1,0.5,4.2,1.6c1.1,1.1,1.6,2.6,1.6,4.4
		c0,1.5-0.2,2.7-0.7,3.6c-0.5,0.9-1.2,1.6-2.1,2c-0.9,0.5-1.9,0.7-3,0.7c-1.8,0-3.2-0.5-4.2-1.6
		C305.8,561.6,305.3,560.1,305.3,558.1z M307.5,558.1c0,1.5,0.3,2.7,1,3.4c0.7,0.8,1.6,1.1,2.6,1.1c1.1,0,1.9-0.4,2.6-1.1
		s1-1.9,1-3.5c0-1.5-0.4-2.6-1.1-3.3s-1.6-1.1-2.6-1.1c-1.1,0-1.9,0.4-2.6,1.1C307.8,555.4,307.5,556.6,307.5,558.1z"/>
	<path class="st3" d="M319.4,564v-16.4h2.1V564H319.4z"/>
	<path class="st3" d="M331,559.7l2.1-0.3c0.2,1.1,0.7,2,1.2,2.5c0.6,0.5,1.3,0.8,2.1,0.8c1,0,1.8-0.3,2.5-1c0.7-0.7,1-1.5,1-2.4
		c0-0.9-0.3-1.7-1-2.3s-1.4-0.9-2.4-0.9c-0.4,0-0.9,0.1-1.5,0.2l0.2-1.8c0.1,0,0.3,0,0.3,0c0.9,0,1.7-0.2,2.4-0.7s1.1-1.1,1.1-2.1
		c0-0.7-0.3-1.4-0.8-1.8c-0.5-0.5-1.2-0.7-2-0.7c-0.8,0-1.5,0.2-2.1,0.7c-0.5,0.5-0.9,1.2-1.1,2.2l-2.1-0.4c0.3-1.4,0.8-2.4,1.8-3.1
		c0.9-0.7,2.1-1.1,3.4-1.1c0.9,0,1.8,0.2,2.6,0.6c0.8,0.4,1.4,0.9,1.8,1.6c0.4,0.7,0.6,1.4,0.6,2.1c0,0.7-0.2,1.4-0.6,1.9
		s-1,1-1.8,1.4c1,0.2,1.8,0.7,2.4,1.4c0.6,0.7,0.8,1.6,0.8,2.7c0,1.4-0.5,2.7-1.6,3.7c-1.1,1-2.5,1.5-4.2,1.5
		c-1.5,0-2.8-0.4-3.8-1.3C331.7,562.2,331.1,561.1,331,559.7z"/>
	<path class="st3" d="M345.2,564v-16.4h5.9c1.3,0,2.4,0.1,3.1,0.2c1,0.2,1.8,0.6,2.5,1.2c0.9,0.7,1.6,1.7,2,2.8s0.7,2.4,0.7,3.9
		c0,1.2-0.2,2.4-0.5,3.3c-0.3,1-0.7,1.8-1.2,2.4c-0.5,0.6-1,1.1-1.6,1.5c-0.6,0.4-1.3,0.6-2.1,0.8s-1.7,0.3-2.8,0.3H345.2z
		 M347.5,562.1h3.7c1.1,0,2-0.1,2.7-0.3c0.6-0.2,1.2-0.5,1.5-0.9c0.5-0.5,1-1.2,1.3-2.1c0.3-0.9,0.5-1.9,0.5-3.2c0-1.7-0.3-3-0.9-4
		c-0.6-0.9-1.3-1.5-2.2-1.9c-0.6-0.2-1.6-0.3-3-0.3h-3.6V562.1z"/>
</g>
</svg>
