<svg id="图层_1" data-name="图层 1" xmlns="http://www.w3.org/2000/svg" viewBox="0 0 623.62 623.62"><defs><style>.cls-1{fill:#9b9b9b;}</style></defs><rect class="cls-1" x="88.68" width="2.83" height="623.62"/><rect class="cls-1" x="177.37" width="2.83" height="623.62"/><rect class="cls-1" x="266.05" width="2.83" height="623.62"/><rect class="cls-1" x="354.74" width="2.83" height="623.62"/><rect class="cls-1" y="532.1" width="623.62" height="2.83"/><rect class="cls-1" y="443.42" width="623.62" height="2.83"/><rect class="cls-1" y="354.74" width="623.62" height="2.83"/><rect class="cls-1" y="266.05" width="623.62" height="2.83"/><rect class="cls-1" y="177.37" width="623.62" height="2.83"/><rect class="cls-1" y="88.68" width="623.62" height="2.83"/><polygon class="cls-1" points="463.4 569.23 456.58 569.23 463.52 579.05 466.99 574.34 463.4 569.23"/><polygon class="cls-1" points="449.04 583.69 431.76 568.39 431.76 575.78 454.61 595.96 454.61 569.23 449.04 569.23 449.04 583.69"/><polygon class="cls-1" points="474.72 569.23 465.49 581.86 465.49 595.13 471.08 595.13 471.08 583.67 481.62 569.23 474.72 569.23"/><polygon class="cls-1" points="411.59 574.08 417.44 585.36 415.25 585.36 412.47 590.8 420.2 590.8 422.46 595.13 428.7 595.13 414.75 568.04 411.59 574.08"/><polygon class="cls-1" points="431.76 595.13 431.76 595.14 437.33 595.14 437.33 584.78 431.76 579.89 431.76 595.13"/><polygon class="cls-1" points="409.91 577.43 400.81 595.13 407.03 595.13 413.01 583.51 409.91 577.43"/><path class="cls-1" d="M553.85,584.56a7.09,7.09,0,0,0,2.47-1.16,7.53,7.53,0,0,0,3.1-6.4,7.29,7.29,0,0,0-3.08-6.17,7.5,7.5,0,0,0-2.61-1.25,16.47,16.47,0,0,0-3.9-.35h-1.4v5.5h2a5.48,5.48,0,0,1,2.53.4,2,2,0,0,1,1,1.89,2.15,2.15,0,0,1-1.26,2.11,6.35,6.35,0,0,1-2.48.35h-1.79v5.44h2A14,14,0,0,0,553.85,584.56Z"/><path class="cls-1" d="M484.23,573.91a13.26,13.26,0,0,0-2.83,8.32A13.6,13.6,0,0,0,486.72,593a14.31,14.31,0,0,0,6.86,2.83v-5.62a8.32,8.32,0,0,1-5.12-3.41,8.06,8.06,0,0,1-.72-7.94,7.91,7.91,0,0,1,2-2.77,8.72,8.72,0,0,1,3.86-1.91v-5.63A13.78,13.78,0,0,0,484.23,573.91Z"/><path class="cls-1" d="M501.61,577.34l4.36-3.47a13,13,0,0,0-4-3.57,14.16,14.16,0,0,0-5.26-1.71v5.63A8,8,0,0,1,501.61,577.34Z"/><path class="cls-1" d="M597.1,577.34l4.37-3.47a13.16,13.16,0,0,0-4-3.57,14.16,14.16,0,0,0-5.26-1.71v5.63A8,8,0,0,1,597.1,577.34Z"/><path class="cls-1" d="M554,586.65a2.51,2.51,0,0,1,.06.55,2.1,2.1,0,0,1-1.46,2.2,7.69,7.69,0,0,1-2.34.27h-1.79v5.44h1.83a16.47,16.47,0,0,0,3.57-.32,6.93,6.93,0,0,0,2.45-1.09,7.45,7.45,0,0,0,2.38-2.76,7.91,7.91,0,0,0,.88-3.63,8.29,8.29,0,0,0-.68-3.37A7.94,7.94,0,0,1,554,586.65Z"/><path class="cls-1" d="M579.72,573.91a13.19,13.19,0,0,0-2.82,8.32A13.58,13.58,0,0,0,582.22,593a14.23,14.23,0,0,0,6.86,2.83v-5.62a8.34,8.34,0,0,1-5.13-3.41,8.09,8.09,0,0,1-.72-7.94,7.82,7.82,0,0,1,2-2.77,8.67,8.67,0,0,1,3.86-1.91v-5.63A13.78,13.78,0,0,0,579.72,573.91Z"/><path class="cls-1" d="M496.68,590.22v5.63a13.52,13.52,0,0,0,9.35-5.3l-4.4-3.41A8.15,8.15,0,0,1,496.68,590.22Z"/><path class="cls-1" d="M597.12,587.14a8.12,8.12,0,0,1-5,3.08v5.63a13.57,13.57,0,0,0,9.36-5.3Z"/><rect class="cls-1" x="565.38" y="569.23" width="5.57" height="25.9"/><path class="cls-1" d="M517.88,587.8a9.64,9.64,0,0,1-.72-4.31V569.23h-5.59V584a14.56,14.56,0,0,0,.62,4.68,9.52,9.52,0,0,0,2.06,3.46,10.53,10.53,0,0,0,2.91,2.28,11.21,11.21,0,0,0,3.51,1.23v-5.69A5.06,5.06,0,0,1,517.88,587.8Z"/><path class="cls-1" d="M527.31,583.51a9.5,9.5,0,0,1-.76,4.37,4.91,4.91,0,0,1-2.81,2.08v5.69a11,11,0,0,0,3.53-1.21,11.42,11.42,0,0,0,2.92-2.3,9.4,9.4,0,0,0,2.07-3.46,15.14,15.14,0,0,0,.62-4.68V569.23h-5.57Z"/><rect class="cls-1" x="539.74" y="569.23" width="5.57" height="25.9"/><rect class="cls-1" x="532.1" width="2.83" height="555.5"/><rect class="cls-1" x="532.1" y="608.78" width="2.83" height="14.84"/><rect class="cls-1" x="443.42" width="2.83" height="555.5"/><rect class="cls-1" x="443.42" y="608.78" width="2.83" height="14.84"/></svg>